<mxfile host="65bd71144e">
    <diagram id="B6JtUUc8CN1e905AqLJK" name="Página-1">
        <mxGraphModel dx="4287" dy="6355" grid="1" gridSize="10" guides="1" tooltips="1" connect="1" arrows="1" fold="1" page="1" pageScale="1" pageWidth="827" pageHeight="1169" math="0" shadow="0">
            <root>
                <mxCell id="0"/>
                <mxCell id="1" parent="0"/>
                <mxCell id="279" style="edgeStyle=none;html=1;dashed=1;endArrow=none;endFill=0;" edge="1" parent="1" source="258">
                    <mxGeometry relative="1" as="geometry">
                        <mxPoint x="-1515.53" y="-359" as="targetPoint"/>
                        <mxPoint x="-1515.53" y="-979" as="sourcePoint"/>
                    </mxGeometry>
                </mxCell>
                <mxCell id="270" style="edgeStyle=none;html=1;dashed=1;endArrow=none;endFill=0;" edge="1" parent="1" source="269">
                    <mxGeometry relative="1" as="geometry">
                        <mxPoint x="-1325" y="-370" as="targetPoint"/>
                    </mxGeometry>
                </mxCell>
                <mxCell id="6" style="edgeStyle=none;html=1;entryX=0;entryY=0.5;entryDx=0;entryDy=0;" parent="1" source="2" target="4" edge="1">
                    <mxGeometry relative="1" as="geometry"/>
                </mxCell>
                <mxCell id="2" value="Usuario" style="rounded=1;whiteSpace=wrap;html=1;strokeWidth=1;gradientColor=none;" parent="1" vertex="1">
                    <mxGeometry x="180" y="320" width="120" height="60" as="geometry"/>
                </mxCell>
                <mxCell id="3" value="Pantalla" style="rounded=1;whiteSpace=wrap;html=1;" parent="1" vertex="1">
                    <mxGeometry x="620" y="320" width="120" height="60" as="geometry"/>
                </mxCell>
                <mxCell id="5" style="edgeStyle=none;html=1;entryX=0;entryY=0.5;entryDx=0;entryDy=0;" parent="1" source="4" target="3" edge="1">
                    <mxGeometry relative="1" as="geometry"/>
                </mxCell>
                <mxCell id="4" value="GesRAE" style="ellipse;whiteSpace=wrap;html=1;" parent="1" vertex="1">
                    <mxGeometry x="400" y="310" width="120" height="80" as="geometry"/>
                </mxCell>
                <mxCell id="7" value="Petición" style="text;html=1;align=center;verticalAlign=middle;whiteSpace=wrap;rounded=0;" parent="1" vertex="1">
                    <mxGeometry x="320" y="320" width="60" height="30" as="geometry"/>
                </mxCell>
                <mxCell id="9" value="Datos" style="text;html=1;align=center;verticalAlign=middle;whiteSpace=wrap;rounded=0;" parent="1" vertex="1">
                    <mxGeometry x="540" y="320" width="60" height="30" as="geometry"/>
                </mxCell>
                <mxCell id="10" value="Entiendo que tiene que crear el edificio gracias a los datos del cliente y meterlos en la base de datos de edificios. Estos datos se pueden mostrar a través de una selección y se envian al cliente. Por otro lado, el cliente realiza una reserva de apartamento, con sus datos, y esto genera un &quot;pedido&quot;, que se almacena en la base de datos del pedido y va con los datos de la base de datos del cliente" style="text;html=1;align=center;verticalAlign=middle;whiteSpace=wrap;rounded=0;" parent="1" vertex="1">
                    <mxGeometry x="342.5" y="90" width="235" height="170" as="geometry"/>
                </mxCell>
                <mxCell id="11" value="Crear&lt;div&gt;Edificio&lt;/div&gt;" style="ellipse;whiteSpace=wrap;html=1;aspect=fixed;" parent="1" vertex="1">
                    <mxGeometry x="200" y="580" width="80" height="80" as="geometry"/>
                </mxCell>
                <mxCell id="21" style="edgeStyle=none;html=1;entryX=0.5;entryY=0;entryDx=0;entryDy=0;" parent="1" source="12" target="15" edge="1">
                    <mxGeometry relative="1" as="geometry">
                        <Array as="points">
                            <mxPoint x="540" y="620"/>
                        </Array>
                    </mxGeometry>
                </mxCell>
                <mxCell id="12" value="Crear&lt;div&gt;Reserva&lt;/div&gt;" style="ellipse;whiteSpace=wrap;html=1;aspect=fixed;" parent="1" vertex="1">
                    <mxGeometry x="640" y="580" width="80" height="80" as="geometry"/>
                </mxCell>
                <mxCell id="18" style="edgeStyle=none;html=1;entryX=0.5;entryY=0;entryDx=0;entryDy=0;" parent="1" source="13" target="16" edge="1">
                    <mxGeometry relative="1" as="geometry"/>
                </mxCell>
                <mxCell id="13" value="Base de datos Edificios" style="shape=cylinder3;whiteSpace=wrap;html=1;boundedLbl=1;backgroundOutline=1;size=15;" parent="1" vertex="1">
                    <mxGeometry x="344" y="570" width="70" height="100" as="geometry"/>
                </mxCell>
                <mxCell id="22" style="edgeStyle=none;html=1;entryX=1;entryY=0.5;entryDx=0;entryDy=0;" parent="1" source="14" target="16" edge="1">
                    <mxGeometry relative="1" as="geometry">
                        <Array as="points">
                            <mxPoint x="685" y="930"/>
                        </Array>
                    </mxGeometry>
                </mxCell>
                <mxCell id="14" value="Base de datos&lt;div&gt;Reservas&lt;/div&gt;" style="shape=cylinder3;whiteSpace=wrap;html=1;boundedLbl=1;backgroundOutline=1;size=15;" parent="1" vertex="1">
                    <mxGeometry x="650" y="730" width="70" height="100" as="geometry"/>
                </mxCell>
                <mxCell id="15" value="Reserva" style="rounded=1;whiteSpace=wrap;html=1;" parent="1" vertex="1">
                    <mxGeometry x="480" y="750" width="120" height="60" as="geometry"/>
                </mxCell>
                <mxCell id="16" value="Mostrar" style="ellipse;whiteSpace=wrap;html=1;aspect=fixed;" parent="1" vertex="1">
                    <mxGeometry x="339" y="890" width="80" height="80" as="geometry"/>
                </mxCell>
                <mxCell id="17" style="edgeStyle=none;html=1;entryX=0;entryY=0.5;entryDx=0;entryDy=0;entryPerimeter=0;" parent="1" source="11" target="13" edge="1">
                    <mxGeometry relative="1" as="geometry"/>
                </mxCell>
                <mxCell id="19" value="" style="endArrow=classic;html=1;entryX=0;entryY=0.5;entryDx=0;entryDy=0;" parent="1" target="15" edge="1">
                    <mxGeometry width="50" height="50" relative="1" as="geometry">
                        <mxPoint x="380" y="780" as="sourcePoint"/>
                        <mxPoint x="430" y="730" as="targetPoint"/>
                    </mxGeometry>
                </mxCell>
                <mxCell id="20" style="edgeStyle=none;html=1;entryX=0;entryY=0.5;entryDx=0;entryDy=0;entryPerimeter=0;" parent="1" source="15" target="14" edge="1">
                    <mxGeometry relative="1" as="geometry"/>
                </mxCell>
                <mxCell id="23" value="" style="endArrow=classic;html=1;" parent="1" edge="1">
                    <mxGeometry width="50" height="50" relative="1" as="geometry">
                        <mxPoint x="380" y="970" as="sourcePoint"/>
                        <mxPoint x="380" y="1050" as="targetPoint"/>
                    </mxGeometry>
                </mxCell>
                <mxCell id="24" value="" style="endArrow=classic;html=1;entryX=0;entryY=0.5;entryDx=0;entryDy=0;" parent="1" target="16" edge="1">
                    <mxGeometry width="50" height="50" relative="1" as="geometry">
                        <mxPoint x="240" y="890" as="sourcePoint"/>
                        <mxPoint x="280" y="890" as="targetPoint"/>
                        <Array as="points">
                            <mxPoint x="240" y="930"/>
                        </Array>
                    </mxGeometry>
                </mxCell>
                <mxCell id="25" value="" style="endArrow=classic;html=1;entryX=0.5;entryY=0;entryDx=0;entryDy=0;" parent="1" target="11" edge="1">
                    <mxGeometry width="50" height="50" relative="1" as="geometry">
                        <mxPoint x="240" y="510" as="sourcePoint"/>
                        <mxPoint x="290" y="460" as="targetPoint"/>
                    </mxGeometry>
                </mxCell>
                <mxCell id="26" value="" style="endArrow=classic;html=1;entryX=0.5;entryY=0;entryDx=0;entryDy=0;" parent="1" target="12" edge="1">
                    <mxGeometry width="50" height="50" relative="1" as="geometry">
                        <mxPoint x="680" y="510" as="sourcePoint"/>
                        <mxPoint x="684.5" y="580" as="targetPoint"/>
                    </mxGeometry>
                </mxCell>
                <mxCell id="29" value="Datos Edificio" style="text;html=1;align=center;verticalAlign=middle;whiteSpace=wrap;rounded=0;rotation=90;" parent="1" vertex="1">
                    <mxGeometry x="230" y="530" width="60" height="30" as="geometry"/>
                </mxCell>
                <mxCell id="30" value="Datos Reserva" style="text;html=1;align=center;verticalAlign=middle;whiteSpace=wrap;rounded=0;rotation=90;" parent="1" vertex="1">
                    <mxGeometry x="670" y="530" width="60" height="30" as="geometry"/>
                </mxCell>
                <mxCell id="31" value="Datos Edificio" style="text;html=1;align=center;verticalAlign=middle;whiteSpace=wrap;rounded=0;" parent="1" vertex="1">
                    <mxGeometry x="400" y="750" width="60" height="30" as="geometry"/>
                </mxCell>
                <mxCell id="32" value="Selección" style="text;html=1;align=center;verticalAlign=middle;whiteSpace=wrap;rounded=0;" parent="1" vertex="1">
                    <mxGeometry x="210" y="860" width="60" height="30" as="geometry"/>
                </mxCell>
                <mxCell id="33" value="Reserva Edificio" style="text;html=1;align=center;verticalAlign=middle;whiteSpace=wrap;rounded=0;rotation=90;" parent="1" vertex="1">
                    <mxGeometry x="370" y="990" width="60" height="30" as="geometry"/>
                </mxCell>
                <mxCell id="34" value="Datos Reserva" style="text;html=1;align=center;verticalAlign=middle;whiteSpace=wrap;rounded=0;rotation=-90;" parent="1" vertex="1">
                    <mxGeometry x="490" y="680" width="60" height="30" as="geometry"/>
                </mxCell>
                <mxCell id="44" style="edgeStyle=none;html=1;entryX=0;entryY=0.5;entryDx=0;entryDy=0;exitX=0.975;exitY=0.325;exitDx=0;exitDy=0;exitPerimeter=0;" parent="1" source="35" target="40" edge="1">
                    <mxGeometry relative="1" as="geometry">
                        <Array as="points">
                            <mxPoint x="350" y="1326"/>
                            <mxPoint x="350" y="1260"/>
                        </Array>
                    </mxGeometry>
                </mxCell>
                <mxCell id="45" style="edgeStyle=none;html=1;entryX=0;entryY=0.5;entryDx=0;entryDy=0;exitX=0.938;exitY=0.713;exitDx=0;exitDy=0;exitPerimeter=0;" parent="1" source="35" target="41" edge="1">
                    <mxGeometry relative="1" as="geometry">
                        <Array as="points">
                            <mxPoint x="350" y="1357"/>
                            <mxPoint x="350" y="1420"/>
                        </Array>
                    </mxGeometry>
                </mxCell>
                <mxCell id="35" value="Seleccionar Edificio o Reserva" style="ellipse;whiteSpace=wrap;html=1;aspect=fixed;" parent="1" vertex="1">
                    <mxGeometry x="229" y="1300" width="80" height="80" as="geometry"/>
                </mxCell>
                <mxCell id="36" value="" style="endArrow=classic;html=1;entryX=0.5;entryY=0;entryDx=0;entryDy=0;" parent="1" target="35" edge="1">
                    <mxGeometry width="50" height="50" relative="1" as="geometry">
                        <mxPoint x="269" y="1210" as="sourcePoint"/>
                        <mxPoint x="284" y="1200" as="targetPoint"/>
                    </mxGeometry>
                </mxCell>
                <mxCell id="38" value="" style="endArrow=classic;html=1;entryX=0.5;entryY=1;entryDx=0;entryDy=0;" parent="1" target="35" edge="1">
                    <mxGeometry width="50" height="50" relative="1" as="geometry">
                        <mxPoint x="269" y="1470" as="sourcePoint"/>
                        <mxPoint x="232.5" y="1510" as="targetPoint"/>
                    </mxGeometry>
                </mxCell>
                <mxCell id="39" value="" style="endArrow=classic;html=1;entryX=0;entryY=0.5;entryDx=0;entryDy=0;" parent="1" target="35" edge="1">
                    <mxGeometry width="50" height="50" relative="1" as="geometry">
                        <mxPoint x="140" y="1340" as="sourcePoint"/>
                        <mxPoint x="140" y="1350" as="targetPoint"/>
                    </mxGeometry>
                </mxCell>
                <mxCell id="46" style="edgeStyle=none;html=1;entryX=0.5;entryY=0;entryDx=0;entryDy=0;" parent="1" source="40" target="42" edge="1">
                    <mxGeometry relative="1" as="geometry">
                        <Array as="points">
                            <mxPoint x="670" y="1260"/>
                        </Array>
                    </mxGeometry>
                </mxCell>
                <mxCell id="40" value="Crear Tabla" style="ellipse;whiteSpace=wrap;html=1;aspect=fixed;" parent="1" vertex="1">
                    <mxGeometry x="430" y="1220" width="80" height="80" as="geometry"/>
                </mxCell>
                <mxCell id="47" style="edgeStyle=none;html=1;entryX=0.5;entryY=1;entryDx=0;entryDy=0;" parent="1" source="41" target="42" edge="1">
                    <mxGeometry relative="1" as="geometry">
                        <Array as="points">
                            <mxPoint x="670" y="1420"/>
                        </Array>
                    </mxGeometry>
                </mxCell>
                <mxCell id="41" value="Crear Gráfica" style="ellipse;whiteSpace=wrap;html=1;aspect=fixed;" parent="1" vertex="1">
                    <mxGeometry x="430" y="1380" width="80" height="80" as="geometry"/>
                </mxCell>
                <mxCell id="43" style="edgeStyle=none;html=1;" parent="1" source="42" edge="1">
                    <mxGeometry relative="1" as="geometry">
                        <mxPoint x="790" y="1340" as="targetPoint"/>
                    </mxGeometry>
                </mxCell>
                <mxCell id="42" value="Mostrar" style="ellipse;whiteSpace=wrap;html=1;aspect=fixed;" parent="1" vertex="1">
                    <mxGeometry x="630" y="1300" width="80" height="80" as="geometry"/>
                </mxCell>
                <mxCell id="48" value="Edificio" style="text;html=1;align=center;verticalAlign=middle;whiteSpace=wrap;rounded=0;rotation=90;" parent="1" vertex="1">
                    <mxGeometry x="260" y="1240" width="60" height="30" as="geometry"/>
                </mxCell>
                <mxCell id="49" value="Reserva" style="text;html=1;align=center;verticalAlign=middle;whiteSpace=wrap;rounded=0;rotation=-90;" parent="1" vertex="1">
                    <mxGeometry x="220" y="1410" width="60" height="30" as="geometry"/>
                </mxCell>
                <mxCell id="50" value="Selección" style="text;html=1;align=center;verticalAlign=middle;whiteSpace=wrap;rounded=0;" parent="1" vertex="1">
                    <mxGeometry x="150" y="1310" width="60" height="30" as="geometry"/>
                </mxCell>
                <mxCell id="52" value="" style="group" parent="1" vertex="1" connectable="0">
                    <mxGeometry x="880" y="600" width="200" height="230" as="geometry"/>
                </mxCell>
                <mxCell id="53" value="Edificio" style="swimlane;whiteSpace=wrap;html=1;swimlaneLine=1;rounded=0;shadow=0;glass=0;swimlaneFillColor=none;startSize=30;" parent="52" vertex="1">
                    <mxGeometry width="200" height="200" as="geometry">
                        <mxRectangle x="90" y="510" width="80" height="30" as="alternateBounds"/>
                    </mxGeometry>
                </mxCell>
                <mxCell id="54" value="editaredificio(): void" style="rounded=0;whiteSpace=wrap;html=1;align=left;" parent="52" vertex="1">
                    <mxGeometry y="110" width="200" height="120" as="geometry"/>
                </mxCell>
                <mxCell id="55" value="id: Integer&lt;div&gt;nombre: String&lt;/div&gt;&lt;div&gt;numaptosb: Integer&lt;/div&gt;&lt;div&gt;numaptosn: Integer&lt;/div&gt;&lt;div&gt;numaptosl: Integer&lt;/div&gt;&lt;div&gt;List&amp;lt;int&amp;gt; aptosdisponibles: Integer&lt;/div&gt;" style="rounded=0;whiteSpace=wrap;html=1;align=left;" parent="52" vertex="1">
                    <mxGeometry y="30" width="200" height="110" as="geometry"/>
                </mxCell>
                <mxCell id="56" value="" style="group" parent="1" vertex="1" connectable="0">
                    <mxGeometry x="1280" y="600" width="200" height="230" as="geometry"/>
                </mxCell>
                <mxCell id="57" value="Reserva" style="swimlane;whiteSpace=wrap;html=1;swimlaneLine=1;rounded=0;shadow=0;glass=0;swimlaneFillColor=none;startSize=30;" parent="56" vertex="1">
                    <mxGeometry width="200" height="200" as="geometry">
                        <mxRectangle x="90" y="510" width="80" height="30" as="alternateBounds"/>
                    </mxGeometry>
                </mxCell>
                <mxCell id="58" value="reservarapartamento(): void" style="rounded=0;whiteSpace=wrap;html=1;align=left;" parent="56" vertex="1">
                    <mxGeometry y="110" width="200" height="120" as="geometry"/>
                </mxCell>
                <mxCell id="59" value="idreserva: Integer&lt;div&gt;&lt;font color=&quot;#000000&quot;&gt;idedificio: Integer&lt;br&gt;&lt;/font&gt;&lt;div&gt;&lt;font color=&quot;#000000&quot;&gt;idapto: Integer&lt;/font&gt;&lt;/div&gt;&lt;div&gt;&lt;font color=&quot;#000000&quot;&gt;fechaentrada: String&lt;/font&gt;&lt;/div&gt;&lt;div&gt;&lt;font color=&quot;#000000&quot;&gt;fechasalida: String&lt;/font&gt;&lt;/div&gt;&lt;div&gt;&lt;div&gt;&lt;br&gt;&lt;/div&gt;&lt;/div&gt;&lt;/div&gt;" style="rounded=0;whiteSpace=wrap;html=1;align=left;" parent="56" vertex="1">
                    <mxGeometry y="30" width="200" height="110" as="geometry"/>
                </mxCell>
                <mxCell id="60" value="" style="group" parent="1" vertex="1" connectable="0">
                    <mxGeometry x="1080" y="320" width="200" height="200" as="geometry"/>
                </mxCell>
                <mxCell id="61" value="Interfaz Gráfica" style="swimlane;whiteSpace=wrap;html=1;swimlaneLine=1;rounded=0;shadow=0;glass=0;swimlaneFillColor=none;startSize=30;" parent="60" vertex="1">
                    <mxGeometry width="200" height="200" as="geometry">
                        <mxRectangle x="90" y="510" width="80" height="30" as="alternateBounds"/>
                    </mxGeometry>
                </mxCell>
                <mxCell id="62" value="listaredificio(): void&lt;div&gt;apartamentosdisponibles(): void&lt;/div&gt;&lt;div&gt;reservasmensuales(): void&lt;/div&gt;" style="rounded=0;whiteSpace=wrap;html=1;align=left;" parent="60" vertex="1">
                    <mxGeometry y="110" width="200" height="90" as="geometry"/>
                </mxCell>
                <mxCell id="63" value="" style="rounded=0;whiteSpace=wrap;html=1;" parent="60" vertex="1">
                    <mxGeometry y="30" width="200" height="80" as="geometry"/>
                </mxCell>
                <mxCell id="66" style="edgeStyle=orthogonalEdgeStyle;html=1;endArrow=none;endFill=0;" parent="1" source="53" target="62" edge="1">
                    <mxGeometry relative="1" as="geometry"/>
                </mxCell>
                <mxCell id="67" style="edgeStyle=none;html=1;entryX=0;entryY=0.5;entryDx=0;entryDy=0;endArrow=none;endFill=0;" parent="1" source="53" target="57" edge="1">
                    <mxGeometry relative="1" as="geometry"/>
                </mxCell>
                <mxCell id="68" style="edgeStyle=orthogonalEdgeStyle;html=1;entryX=1;entryY=0.5;entryDx=0;entryDy=0;endArrow=none;endFill=0;" parent="1" source="57" target="61" edge="1">
                    <mxGeometry relative="1" as="geometry"/>
                </mxCell>
                <mxCell id="70" value="1..*" style="text;html=1;align=center;verticalAlign=middle;whiteSpace=wrap;rounded=0;" parent="1" vertex="1">
                    <mxGeometry x="1080" y="670" width="60" height="30" as="geometry"/>
                </mxCell>
                <mxCell id="71" value="1" style="text;html=1;align=center;verticalAlign=middle;whiteSpace=wrap;rounded=0;" parent="1" vertex="1">
                    <mxGeometry x="1230" y="671" width="60" height="30" as="geometry"/>
                </mxCell>
                <mxCell id="72" value="Gestión de Edificios" style="ellipse;whiteSpace=wrap;html=1;aspect=fixed;" vertex="1" parent="1">
                    <mxGeometry x="1070" y="980" width="150" height="150" as="geometry"/>
                </mxCell>
                <mxCell id="73" value="Gestión de Reservas" style="ellipse;whiteSpace=wrap;html=1;aspect=fixed;" vertex="1" parent="1">
                    <mxGeometry x="1070" y="1320" width="150" height="150" as="geometry"/>
                </mxCell>
                <mxCell id="80" value="" style="endArrow=none;html=1;exitX=1;exitY=1;exitDx=0;exitDy=0;entryX=0;entryY=0;entryDx=0;entryDy=0;" edge="1" parent="1" source="72" target="76">
                    <mxGeometry width="50" height="50" relative="1" as="geometry">
                        <mxPoint x="1250" y="1130" as="sourcePoint"/>
                        <mxPoint x="1300" y="1080" as="targetPoint"/>
                    </mxGeometry>
                </mxCell>
                <mxCell id="81" value="" style="endArrow=none;html=1;exitX=0.894;exitY=0.192;exitDx=0;exitDy=0;exitPerimeter=0;entryX=0;entryY=1;entryDx=0;entryDy=0;" edge="1" parent="1" source="73" target="79">
                    <mxGeometry width="50" height="50" relative="1" as="geometry">
                        <mxPoint x="1260" y="1370" as="sourcePoint"/>
                        <mxPoint x="1310" y="1320" as="targetPoint"/>
                    </mxGeometry>
                </mxCell>
                <mxCell id="82" value="" style="endArrow=classic;html=1;entryX=0;entryY=0.5;entryDx=0;entryDy=0;" edge="1" parent="1" target="73">
                    <mxGeometry width="50" height="50" relative="1" as="geometry">
                        <mxPoint x="950" y="1395" as="sourcePoint"/>
                        <mxPoint x="1010" y="1375" as="targetPoint"/>
                    </mxGeometry>
                </mxCell>
                <mxCell id="83" value="" style="endArrow=classic;html=1;entryX=0;entryY=0.5;entryDx=0;entryDy=0;" edge="1" parent="1">
                    <mxGeometry width="50" height="50" relative="1" as="geometry">
                        <mxPoint x="950" y="1054.58" as="sourcePoint"/>
                        <mxPoint x="1070" y="1054.58" as="targetPoint"/>
                    </mxGeometry>
                </mxCell>
                <mxCell id="84" value="Petición" style="text;html=1;align=center;verticalAlign=middle;whiteSpace=wrap;rounded=0;" vertex="1" parent="1">
                    <mxGeometry x="980" y="1030" width="60" height="30" as="geometry"/>
                </mxCell>
                <mxCell id="85" value="Petición" style="text;html=1;align=center;verticalAlign=middle;whiteSpace=wrap;rounded=0;" vertex="1" parent="1">
                    <mxGeometry x="980" y="1365" width="60" height="30" as="geometry"/>
                </mxCell>
                <mxCell id="86" value="" style="endArrow=classic;html=1;" edge="1" parent="1">
                    <mxGeometry width="50" height="50" relative="1" as="geometry">
                        <mxPoint x="1220" y="1050" as="sourcePoint"/>
                        <mxPoint x="1350" y="980" as="targetPoint"/>
                    </mxGeometry>
                </mxCell>
                <mxCell id="87" value="" style="endArrow=classic;html=1;exitX=0.999;exitY=0.467;exitDx=0;exitDy=0;exitPerimeter=0;" edge="1" parent="1" source="72">
                    <mxGeometry width="50" height="50" relative="1" as="geometry">
                        <mxPoint x="1270" y="1110" as="sourcePoint"/>
                        <mxPoint x="1360" y="1050" as="targetPoint"/>
                    </mxGeometry>
                </mxCell>
                <mxCell id="88" value="Lista de Edificios" style="text;html=1;align=center;verticalAlign=middle;whiteSpace=wrap;rounded=0;rotation=-30;" vertex="1" parent="1">
                    <mxGeometry x="1260" y="980" width="60" height="30" as="geometry"/>
                </mxCell>
                <mxCell id="92" value="" style="group" vertex="1" connectable="0" parent="1">
                    <mxGeometry x="1280" y="1169" width="90" height="30" as="geometry"/>
                </mxCell>
                <mxCell id="74" value="" style="endArrow=none;html=1;" edge="1" parent="92">
                    <mxGeometry width="50" height="50" relative="1" as="geometry">
                        <mxPoint as="sourcePoint"/>
                        <mxPoint x="90" as="targetPoint"/>
                    </mxGeometry>
                </mxCell>
                <mxCell id="75" value="" style="endArrow=none;html=1;" edge="1" parent="92">
                    <mxGeometry width="50" height="50" relative="1" as="geometry">
                        <mxPoint y="30" as="sourcePoint"/>
                        <mxPoint x="90" y="30" as="targetPoint"/>
                    </mxGeometry>
                </mxCell>
                <mxCell id="76" value="Edificios" style="text;html=1;align=center;verticalAlign=middle;whiteSpace=wrap;rounded=0;" vertex="1" parent="92">
                    <mxGeometry x="15" width="60" height="30" as="geometry"/>
                </mxCell>
                <mxCell id="93" value="" style="group" vertex="1" connectable="0" parent="1">
                    <mxGeometry x="1280" y="1248.31" width="90" height="30" as="geometry"/>
                </mxCell>
                <mxCell id="77" value="" style="endArrow=none;html=1;" edge="1" parent="93">
                    <mxGeometry width="50" height="50" relative="1" as="geometry">
                        <mxPoint as="sourcePoint"/>
                        <mxPoint x="90" as="targetPoint"/>
                    </mxGeometry>
                </mxCell>
                <mxCell id="78" value="" style="endArrow=none;html=1;" edge="1" parent="93">
                    <mxGeometry width="50" height="50" relative="1" as="geometry">
                        <mxPoint y="30" as="sourcePoint"/>
                        <mxPoint x="90" y="30" as="targetPoint"/>
                    </mxGeometry>
                </mxCell>
                <mxCell id="79" value="Reservas" style="text;html=1;align=center;verticalAlign=middle;whiteSpace=wrap;rounded=0;" vertex="1" parent="93">
                    <mxGeometry x="15" width="60" height="30" as="geometry"/>
                </mxCell>
                <mxCell id="97" value="Lista de Apartamentos" style="text;html=1;align=center;verticalAlign=middle;whiteSpace=wrap;rounded=0;rotation=0;" vertex="1" parent="1">
                    <mxGeometry x="1290" y="1020" width="60" height="30" as="geometry"/>
                </mxCell>
                <mxCell id="100" value="" style="endArrow=classic;html=1;exitX=1;exitY=0.5;exitDx=0;exitDy=0;" edge="1" parent="1" source="73">
                    <mxGeometry width="50" height="50" relative="1" as="geometry">
                        <mxPoint x="1260" y="1370" as="sourcePoint"/>
                        <mxPoint x="1360" y="1395" as="targetPoint"/>
                    </mxGeometry>
                </mxCell>
                <mxCell id="101" value="Lista Reservas Mensuales" style="text;html=1;align=center;verticalAlign=middle;whiteSpace=wrap;rounded=0;" vertex="1" parent="1">
                    <mxGeometry x="1241" y="1365" width="109" height="30" as="geometry"/>
                </mxCell>
                <mxCell id="103" value="Editar Edificio" style="ellipse;whiteSpace=wrap;html=1;aspect=fixed;" vertex="1" parent="1">
                    <mxGeometry x="1830" y="960" width="150" height="150" as="geometry"/>
                </mxCell>
                <mxCell id="123" style="edgeStyle=none;html=1;" edge="1" parent="1" source="104">
                    <mxGeometry relative="1" as="geometry">
                        <mxPoint x="2430" y="1035.0000000000002" as="targetPoint"/>
                    </mxGeometry>
                </mxCell>
                <mxCell id="104" value="Listar Edificios" style="ellipse;whiteSpace=wrap;html=1;aspect=fixed;" vertex="1" parent="1">
                    <mxGeometry x="2190" y="960" width="150" height="150" as="geometry"/>
                </mxCell>
                <mxCell id="105" value="Apartamentos Disponibles" style="ellipse;whiteSpace=wrap;html=1;aspect=fixed;" vertex="1" parent="1">
                    <mxGeometry x="1830" y="1210" width="150" height="150" as="geometry"/>
                </mxCell>
                <mxCell id="106" value="" style="endArrow=classic;html=1;entryX=0;entryY=0.5;entryDx=0;entryDy=0;" edge="1" parent="1" target="103">
                    <mxGeometry width="50" height="50" relative="1" as="geometry">
                        <mxPoint x="1710" y="1035" as="sourcePoint"/>
                        <mxPoint x="1760" y="1020" as="targetPoint"/>
                    </mxGeometry>
                </mxCell>
                <mxCell id="107" value="Petición" style="text;html=1;align=center;verticalAlign=middle;whiteSpace=wrap;rounded=0;" vertex="1" parent="1">
                    <mxGeometry x="1730" y="1010" width="60" height="30" as="geometry"/>
                </mxCell>
                <mxCell id="108" value="" style="group" vertex="1" connectable="0" parent="1">
                    <mxGeometry x="2030" y="1139" width="90" height="30" as="geometry"/>
                </mxCell>
                <mxCell id="109" value="" style="endArrow=none;html=1;" edge="1" parent="108">
                    <mxGeometry width="50" height="50" relative="1" as="geometry">
                        <mxPoint as="sourcePoint"/>
                        <mxPoint x="90" as="targetPoint"/>
                    </mxGeometry>
                </mxCell>
                <mxCell id="110" value="" style="endArrow=none;html=1;" edge="1" parent="108">
                    <mxGeometry width="50" height="50" relative="1" as="geometry">
                        <mxPoint y="30" as="sourcePoint"/>
                        <mxPoint x="90" y="30" as="targetPoint"/>
                    </mxGeometry>
                </mxCell>
                <mxCell id="111" value="Edificios" style="text;html=1;align=center;verticalAlign=middle;whiteSpace=wrap;rounded=0;" vertex="1" parent="108">
                    <mxGeometry x="15" width="60" height="30" as="geometry"/>
                </mxCell>
                <mxCell id="112" value="" style="endArrow=none;html=1;exitX=1;exitY=0.5;exitDx=0;exitDy=0;entryX=0.5;entryY=0;entryDx=0;entryDy=0;" edge="1" parent="1" source="103" target="111">
                    <mxGeometry width="50" height="50" relative="1" as="geometry">
                        <mxPoint x="2030" y="1060" as="sourcePoint"/>
                        <mxPoint x="2080" y="1010" as="targetPoint"/>
                    </mxGeometry>
                </mxCell>
                <mxCell id="113" value="" style="endArrow=classic;html=1;entryX=0;entryY=0.5;entryDx=0;entryDy=0;" edge="1" parent="1">
                    <mxGeometry width="50" height="50" relative="1" as="geometry">
                        <mxPoint x="1710" y="1285" as="sourcePoint"/>
                        <mxPoint x="1830" y="1285" as="targetPoint"/>
                    </mxGeometry>
                </mxCell>
                <mxCell id="114" value="Petición" style="text;html=1;align=center;verticalAlign=middle;whiteSpace=wrap;rounded=0;" vertex="1" parent="1">
                    <mxGeometry x="1730" y="1260" width="60" height="30" as="geometry"/>
                </mxCell>
                <mxCell id="115" value="" style="endArrow=none;html=1;exitX=1;exitY=0;exitDx=0;exitDy=0;entryX=0.5;entryY=1;entryDx=0;entryDy=0;" edge="1" parent="1" source="105" target="111">
                    <mxGeometry width="50" height="50" relative="1" as="geometry">
                        <mxPoint x="2020" y="1260" as="sourcePoint"/>
                        <mxPoint x="2070" y="1210" as="targetPoint"/>
                    </mxGeometry>
                </mxCell>
                <mxCell id="116" value="" style="endArrow=classic;html=1;exitX=1;exitY=0.5;exitDx=0;exitDy=0;" edge="1" parent="1" source="105">
                    <mxGeometry width="50" height="50" relative="1" as="geometry">
                        <mxPoint x="2000" y="1300" as="sourcePoint"/>
                        <mxPoint x="2130" y="1285" as="targetPoint"/>
                    </mxGeometry>
                </mxCell>
                <mxCell id="117" value="Lista de Apartamentos" style="text;html=1;align=center;verticalAlign=middle;whiteSpace=wrap;rounded=0;" vertex="1" parent="1">
                    <mxGeometry x="1990" y="1260" width="130" height="30" as="geometry"/>
                </mxCell>
                <mxCell id="120" value="" style="endArrow=none;html=1;exitX=0.75;exitY=0;exitDx=0;exitDy=0;entryX=0.012;entryY=0.638;entryDx=0;entryDy=0;entryPerimeter=0;" edge="1" parent="1" source="111" target="104">
                    <mxGeometry width="50" height="50" relative="1" as="geometry">
                        <mxPoint x="2110" y="1110" as="sourcePoint"/>
                        <mxPoint x="2160" y="1060" as="targetPoint"/>
                    </mxGeometry>
                </mxCell>
                <mxCell id="121" value="" style="endArrow=classic;html=1;entryX=0;entryY=0.5;entryDx=0;entryDy=0;" edge="1" parent="1">
                    <mxGeometry width="50" height="50" relative="1" as="geometry">
                        <mxPoint x="2070" y="1035" as="sourcePoint"/>
                        <mxPoint x="2190" y="1035" as="targetPoint"/>
                    </mxGeometry>
                </mxCell>
                <mxCell id="122" value="Petición" style="text;html=1;align=center;verticalAlign=middle;whiteSpace=wrap;rounded=0;" vertex="1" parent="1">
                    <mxGeometry x="2090" y="1010" width="60" height="30" as="geometry"/>
                </mxCell>
                <mxCell id="124" value="Lista de Edificios" style="text;html=1;align=center;verticalAlign=middle;whiteSpace=wrap;rounded=0;" vertex="1" parent="1">
                    <mxGeometry x="2330" y="1010" width="130" height="30" as="geometry"/>
                </mxCell>
                <mxCell id="125" value="" style="endArrow=none;html=1;entryX=0.5;entryY=1;entryDx=0;entryDy=0;exitX=0.5;exitY=0;exitDx=0;exitDy=0;" edge="1" parent="1" source="73" target="76">
                    <mxGeometry width="50" height="50" relative="1" as="geometry">
                        <mxPoint x="1180" y="1330" as="sourcePoint"/>
                        <mxPoint x="1230" y="1280" as="targetPoint"/>
                    </mxGeometry>
                </mxCell>
                <mxCell id="126" value="Reservar Apartamento" style="ellipse;whiteSpace=wrap;html=1;aspect=fixed;" vertex="1" parent="1">
                    <mxGeometry x="1840" y="1460" width="150" height="150" as="geometry"/>
                </mxCell>
                <mxCell id="129" value="Reservas Mensuales de Apartamento" style="ellipse;whiteSpace=wrap;html=1;aspect=fixed;" vertex="1" parent="1">
                    <mxGeometry x="1840" y="1710" width="150" height="150" as="geometry"/>
                </mxCell>
                <mxCell id="130" value="" style="endArrow=classic;html=1;entryX=0;entryY=0.5;entryDx=0;entryDy=0;" edge="1" parent="1" target="126">
                    <mxGeometry width="50" height="50" relative="1" as="geometry">
                        <mxPoint x="1720" y="1535" as="sourcePoint"/>
                        <mxPoint x="1770" y="1520" as="targetPoint"/>
                    </mxGeometry>
                </mxCell>
                <mxCell id="131" value="Petición" style="text;html=1;align=center;verticalAlign=middle;whiteSpace=wrap;rounded=0;" vertex="1" parent="1">
                    <mxGeometry x="1740" y="1510" width="60" height="30" as="geometry"/>
                </mxCell>
                <mxCell id="132" value="" style="group" vertex="1" connectable="0" parent="1">
                    <mxGeometry x="2040" y="1639" width="90" height="30" as="geometry"/>
                </mxCell>
                <mxCell id="133" value="" style="endArrow=none;html=1;" edge="1" parent="132">
                    <mxGeometry width="50" height="50" relative="1" as="geometry">
                        <mxPoint as="sourcePoint"/>
                        <mxPoint x="90" as="targetPoint"/>
                    </mxGeometry>
                </mxCell>
                <mxCell id="134" value="" style="endArrow=none;html=1;" edge="1" parent="132">
                    <mxGeometry width="50" height="50" relative="1" as="geometry">
                        <mxPoint y="30" as="sourcePoint"/>
                        <mxPoint x="90" y="30" as="targetPoint"/>
                    </mxGeometry>
                </mxCell>
                <mxCell id="135" value="Edificios" style="text;html=1;align=center;verticalAlign=middle;whiteSpace=wrap;rounded=0;" vertex="1" parent="132">
                    <mxGeometry x="15" width="60" height="30" as="geometry"/>
                </mxCell>
                <mxCell id="136" value="" style="endArrow=none;html=1;exitX=1;exitY=0.5;exitDx=0;exitDy=0;entryX=0.5;entryY=0;entryDx=0;entryDy=0;" edge="1" parent="1" source="126" target="135">
                    <mxGeometry width="50" height="50" relative="1" as="geometry">
                        <mxPoint x="2040" y="1560" as="sourcePoint"/>
                        <mxPoint x="2090" y="1510" as="targetPoint"/>
                    </mxGeometry>
                </mxCell>
                <mxCell id="137" value="" style="endArrow=classic;html=1;entryX=0;entryY=0.5;entryDx=0;entryDy=0;" edge="1" parent="1">
                    <mxGeometry width="50" height="50" relative="1" as="geometry">
                        <mxPoint x="1720" y="1785" as="sourcePoint"/>
                        <mxPoint x="1840" y="1785" as="targetPoint"/>
                    </mxGeometry>
                </mxCell>
                <mxCell id="138" value="Petición" style="text;html=1;align=center;verticalAlign=middle;whiteSpace=wrap;rounded=0;" vertex="1" parent="1">
                    <mxGeometry x="1740" y="1760" width="60" height="30" as="geometry"/>
                </mxCell>
                <mxCell id="140" value="" style="endArrow=classic;html=1;exitX=1;exitY=0.5;exitDx=0;exitDy=0;" edge="1" parent="1" source="129">
                    <mxGeometry width="50" height="50" relative="1" as="geometry">
                        <mxPoint x="2010" y="1800" as="sourcePoint"/>
                        <mxPoint x="2140" y="1785" as="targetPoint"/>
                    </mxGeometry>
                </mxCell>
                <mxCell id="141" value="Lista Reservas Mensuales" style="text;html=1;align=center;verticalAlign=middle;whiteSpace=wrap;rounded=0;" vertex="1" parent="1">
                    <mxGeometry x="2000" y="1760" width="160" height="30" as="geometry"/>
                </mxCell>
                <mxCell id="146" value="" style="group" vertex="1" connectable="0" parent="1">
                    <mxGeometry x="2160" y="1640" width="90" height="30" as="geometry"/>
                </mxCell>
                <mxCell id="147" value="" style="endArrow=none;html=1;" edge="1" parent="146">
                    <mxGeometry width="50" height="50" relative="1" as="geometry">
                        <mxPoint as="sourcePoint"/>
                        <mxPoint x="90" as="targetPoint"/>
                    </mxGeometry>
                </mxCell>
                <mxCell id="148" value="" style="endArrow=none;html=1;" edge="1" parent="146">
                    <mxGeometry width="50" height="50" relative="1" as="geometry">
                        <mxPoint y="30" as="sourcePoint"/>
                        <mxPoint x="90" y="30" as="targetPoint"/>
                    </mxGeometry>
                </mxCell>
                <mxCell id="149" value="Reservas" style="text;html=1;align=center;verticalAlign=middle;whiteSpace=wrap;rounded=0;" vertex="1" parent="146">
                    <mxGeometry x="15" width="60" height="30" as="geometry"/>
                </mxCell>
                <mxCell id="150" value="" style="endArrow=none;html=1;exitX=1;exitY=0.5;exitDx=0;exitDy=0;entryX=0.5;entryY=0;entryDx=0;entryDy=0;" edge="1" parent="1" source="126" target="149">
                    <mxGeometry width="50" height="50" relative="1" as="geometry">
                        <mxPoint x="2030" y="1530" as="sourcePoint"/>
                        <mxPoint x="2080" y="1480" as="targetPoint"/>
                    </mxGeometry>
                </mxCell>
                <mxCell id="151" value="" style="endArrow=none;html=1;exitX=1;exitY=0;exitDx=0;exitDy=0;entryX=0.5;entryY=1;entryDx=0;entryDy=0;" edge="1" parent="1" source="129" target="149">
                    <mxGeometry width="50" height="50" relative="1" as="geometry">
                        <mxPoint x="1980" y="1750" as="sourcePoint"/>
                        <mxPoint x="2030" y="1700" as="targetPoint"/>
                    </mxGeometry>
                </mxCell>
                <mxCell id="164" style="edgeStyle=none;html=1;entryX=0;entryY=0.5;entryDx=0;entryDy=0;" edge="1" parent="1" source="152" target="163">
                    <mxGeometry relative="1" as="geometry">
                        <Array as="points">
                            <mxPoint x="1930" y="505"/>
                        </Array>
                    </mxGeometry>
                </mxCell>
                <mxCell id="152" value="Edificio" style="rounded=0;whiteSpace=wrap;html=1;" vertex="1" parent="1">
                    <mxGeometry x="1870" y="320" width="120" height="70" as="geometry"/>
                </mxCell>
                <mxCell id="154" value="Apartamento" style="rounded=0;whiteSpace=wrap;html=1;" vertex="1" parent="1">
                    <mxGeometry x="2160" y="170" width="120" height="70" as="geometry"/>
                </mxCell>
                <mxCell id="178" style="edgeStyle=none;html=1;entryX=0.5;entryY=1;entryDx=0;entryDy=0;" edge="1" parent="1" source="155" target="176">
                    <mxGeometry relative="1" as="geometry"/>
                </mxCell>
                <mxCell id="155" value="Reserva" style="rounded=0;whiteSpace=wrap;html=1;" vertex="1" parent="1">
                    <mxGeometry x="2160" y="470" width="120" height="70" as="geometry"/>
                </mxCell>
                <mxCell id="159" value="" style="endArrow=none;html=1;" edge="1" parent="1">
                    <mxGeometry width="50" height="50" relative="1" as="geometry">
                        <mxPoint x="2150" y="210" as="sourcePoint"/>
                        <mxPoint x="2150" y="200" as="targetPoint"/>
                    </mxGeometry>
                </mxCell>
                <mxCell id="160" value="Tiene" style="rhombus;whiteSpace=wrap;html=1;" vertex="1" parent="1">
                    <mxGeometry x="1980" y="175" width="110" height="60" as="geometry"/>
                </mxCell>
                <mxCell id="161" value="" style="endArrow=none;html=1;exitX=1;exitY=0.5;exitDx=0;exitDy=0;entryX=0;entryY=0.5;entryDx=0;entryDy=0;" edge="1" parent="1" source="160" target="154">
                    <mxGeometry width="50" height="50" relative="1" as="geometry">
                        <mxPoint x="2090" y="200" as="sourcePoint"/>
                        <mxPoint x="2140" y="150" as="targetPoint"/>
                    </mxGeometry>
                </mxCell>
                <mxCell id="163" value="Tiene" style="rhombus;whiteSpace=wrap;html=1;" vertex="1" parent="1">
                    <mxGeometry x="1980" y="475" width="110" height="60" as="geometry"/>
                </mxCell>
                <mxCell id="165" value="" style="endArrow=none;html=1;exitX=1;exitY=0.5;exitDx=0;exitDy=0;entryX=0;entryY=0.5;entryDx=0;entryDy=0;" edge="1" parent="1" source="163" target="155">
                    <mxGeometry width="50" height="50" relative="1" as="geometry">
                        <mxPoint x="2090" y="480" as="sourcePoint"/>
                        <mxPoint x="2140" y="430" as="targetPoint"/>
                    </mxGeometry>
                </mxCell>
                <mxCell id="168" value="" style="endArrow=none;html=1;" edge="1" parent="1">
                    <mxGeometry width="50" height="50" relative="1" as="geometry">
                        <mxPoint x="1920" y="310" as="sourcePoint"/>
                        <mxPoint x="1940" y="310" as="targetPoint"/>
                    </mxGeometry>
                </mxCell>
                <mxCell id="162" style="edgeStyle=none;html=1;entryX=0;entryY=0.5;entryDx=0;entryDy=0;" edge="1" parent="1" source="152" target="160">
                    <mxGeometry relative="1" as="geometry">
                        <Array as="points">
                            <mxPoint x="1930" y="205"/>
                        </Array>
                    </mxGeometry>
                </mxCell>
                <mxCell id="166" value="" style="endArrow=none;html=1;" edge="1" parent="1">
                    <mxGeometry width="50" height="50" relative="1" as="geometry">
                        <mxPoint x="1920" y="320" as="sourcePoint"/>
                        <mxPoint x="1930" y="310" as="targetPoint"/>
                    </mxGeometry>
                </mxCell>
                <mxCell id="167" value="" style="endArrow=none;html=1;" edge="1" parent="1">
                    <mxGeometry width="50" height="50" relative="1" as="geometry">
                        <mxPoint x="1940" y="320" as="sourcePoint"/>
                        <mxPoint x="1930" y="310" as="targetPoint"/>
                    </mxGeometry>
                </mxCell>
                <mxCell id="173" value="" style="endArrow=none;html=1;" edge="1" parent="1">
                    <mxGeometry width="50" height="50" relative="1" as="geometry">
                        <mxPoint x="1930" y="400" as="sourcePoint"/>
                        <mxPoint x="1940" y="390" as="targetPoint"/>
                    </mxGeometry>
                </mxCell>
                <mxCell id="174" value="" style="endArrow=none;html=1;" edge="1" parent="1">
                    <mxGeometry width="50" height="50" relative="1" as="geometry">
                        <mxPoint x="1930" y="400" as="sourcePoint"/>
                        <mxPoint x="1920" y="390" as="targetPoint"/>
                    </mxGeometry>
                </mxCell>
                <mxCell id="175" value="" style="ellipse;whiteSpace=wrap;html=1;aspect=fixed;" vertex="1" parent="1">
                    <mxGeometry x="1925" y="400" width="10" height="10" as="geometry"/>
                </mxCell>
                <mxCell id="176" value="Tiene" style="rhombus;whiteSpace=wrap;html=1;" vertex="1" parent="1">
                    <mxGeometry x="2165" y="325" width="110" height="60" as="geometry"/>
                </mxCell>
                <mxCell id="179" value="" style="endArrow=none;html=1;exitX=0.5;exitY=0;exitDx=0;exitDy=0;entryX=0.5;entryY=1;entryDx=0;entryDy=0;" edge="1" parent="1" source="183" target="154">
                    <mxGeometry width="50" height="50" relative="1" as="geometry">
                        <mxPoint x="2120" y="330" as="sourcePoint"/>
                        <mxPoint x="2170" y="280" as="targetPoint"/>
                    </mxGeometry>
                </mxCell>
                <mxCell id="180" value="" style="endArrow=none;html=1;" edge="1" parent="1">
                    <mxGeometry width="50" height="50" relative="1" as="geometry">
                        <mxPoint x="2210" y="460" as="sourcePoint"/>
                        <mxPoint x="2230" y="460" as="targetPoint"/>
                    </mxGeometry>
                </mxCell>
                <mxCell id="181" value="" style="endArrow=none;html=1;" edge="1" parent="1">
                    <mxGeometry width="50" height="50" relative="1" as="geometry">
                        <mxPoint x="2210" y="250" as="sourcePoint"/>
                        <mxPoint x="2230" y="250" as="targetPoint"/>
                    </mxGeometry>
                </mxCell>
                <mxCell id="184" value="" style="endArrow=none;html=1;exitX=0.5;exitY=0;exitDx=0;exitDy=0;entryX=0.5;entryY=1;entryDx=0;entryDy=0;" edge="1" parent="1" source="176" target="183">
                    <mxGeometry width="50" height="50" relative="1" as="geometry">
                        <mxPoint x="2220" y="325" as="sourcePoint"/>
                        <mxPoint x="2220" y="240" as="targetPoint"/>
                    </mxGeometry>
                </mxCell>
                <mxCell id="183" value="" style="ellipse;whiteSpace=wrap;html=1;aspect=fixed;" vertex="1" parent="1">
                    <mxGeometry x="2215" y="260" width="10" height="10" as="geometry"/>
                </mxCell>
                <mxCell id="187" value="" style="group" vertex="1" connectable="0" parent="1">
                    <mxGeometry x="334" y="2350" width="80" height="80" as="geometry"/>
                </mxCell>
                <mxCell id="185" value="" style="ellipse;whiteSpace=wrap;html=1;aspect=fixed;" vertex="1" parent="187">
                    <mxGeometry width="80" height="80" as="geometry"/>
                </mxCell>
                <mxCell id="186" value="" style="ellipse;whiteSpace=wrap;html=1;aspect=fixed;" vertex="1" parent="187">
                    <mxGeometry x="10.5" y="10.5" width="59" height="59" as="geometry"/>
                </mxCell>
                <mxCell id="188" value="Iniciar Programa" style="ellipse;whiteSpace=wrap;html=1;aspect=fixed;" vertex="1" parent="1">
                    <mxGeometry x="600" y="2440" width="160" height="160" as="geometry"/>
                </mxCell>
                <mxCell id="189" value="Editar Edificio" style="ellipse;whiteSpace=wrap;html=1;aspect=fixed;" vertex="1" parent="1">
                    <mxGeometry x="530" y="2150" width="150" height="150" as="geometry"/>
                </mxCell>
                <mxCell id="190" value="Listar Edificios" style="ellipse;whiteSpace=wrap;html=1;aspect=fixed;" vertex="1" parent="1">
                    <mxGeometry x="850" y="2200" width="150" height="150" as="geometry"/>
                </mxCell>
                <mxCell id="191" value="Apartamentos Disponibles" style="ellipse;whiteSpace=wrap;html=1;aspect=fixed;" vertex="1" parent="1">
                    <mxGeometry x="910" y="2445" width="150" height="150" as="geometry"/>
                </mxCell>
                <mxCell id="192" value="Reservar Apartamento" style="ellipse;whiteSpace=wrap;html=1;aspect=fixed;" vertex="1" parent="1">
                    <mxGeometry x="870" y="2690" width="150" height="150" as="geometry"/>
                </mxCell>
                <mxCell id="206" value="" style="endArrow=classic;html=1;exitX=1;exitY=0;exitDx=0;exitDy=0;entryX=0.354;entryY=0.974;entryDx=0;entryDy=0;entryPerimeter=0;" edge="1" parent="1" source="188" target="190">
                    <mxGeometry width="50" height="50" relative="1" as="geometry">
                        <mxPoint x="750" y="2460" as="sourcePoint"/>
                        <mxPoint x="800" y="2410" as="targetPoint"/>
                    </mxGeometry>
                </mxCell>
                <mxCell id="207" value="" style="endArrow=classic;html=1;exitX=0;exitY=0.5;exitDx=0;exitDy=0;entryX=0.627;entryY=0.004;entryDx=0;entryDy=0;entryPerimeter=0;" edge="1" parent="1" source="190" target="188">
                    <mxGeometry width="50" height="50" relative="1" as="geometry">
                        <mxPoint x="780" y="2320" as="sourcePoint"/>
                        <mxPoint x="830" y="2270" as="targetPoint"/>
                    </mxGeometry>
                </mxCell>
                <mxCell id="208" value="" style="endArrow=classic;html=1;exitX=0.972;exitY=0.643;exitDx=0;exitDy=0;exitPerimeter=0;entryX=0.009;entryY=0.663;entryDx=0;entryDy=0;entryPerimeter=0;" edge="1" parent="1" source="188" target="191">
                    <mxGeometry width="50" height="50" relative="1" as="geometry">
                        <mxPoint x="820" y="2530" as="sourcePoint"/>
                        <mxPoint x="870" y="2480" as="targetPoint"/>
                    </mxGeometry>
                </mxCell>
                <mxCell id="210" value="" style="endArrow=classic;html=1;exitX=0.026;exitY=0.324;exitDx=0;exitDy=0;exitPerimeter=0;entryX=0.977;entryY=0.346;entryDx=0;entryDy=0;entryPerimeter=0;" edge="1" parent="1" source="191" target="188">
                    <mxGeometry width="50" height="50" relative="1" as="geometry">
                        <mxPoint x="890" y="2520" as="sourcePoint"/>
                        <mxPoint x="940" y="2470" as="targetPoint"/>
                    </mxGeometry>
                </mxCell>
                <mxCell id="211" value="" style="endArrow=classic;html=1;exitX=0.738;exitY=0.94;exitDx=0;exitDy=0;exitPerimeter=0;entryX=0.009;entryY=0.463;entryDx=0;entryDy=0;entryPerimeter=0;" edge="1" parent="1" source="188" target="192">
                    <mxGeometry width="50" height="50" relative="1" as="geometry">
                        <mxPoint x="740" y="2680" as="sourcePoint"/>
                        <mxPoint x="790" y="2630" as="targetPoint"/>
                    </mxGeometry>
                </mxCell>
                <mxCell id="212" value="" style="endArrow=classic;html=1;entryX=0.894;entryY=0.783;entryDx=0;entryDy=0;entryPerimeter=0;" edge="1" parent="1" source="192" target="188">
                    <mxGeometry width="50" height="50" relative="1" as="geometry">
                        <mxPoint x="870" y="2690" as="sourcePoint"/>
                        <mxPoint x="920" y="2640" as="targetPoint"/>
                    </mxGeometry>
                </mxCell>
                <mxCell id="213" value="" style="endArrow=classic;html=1;exitX=0;exitY=1;exitDx=0;exitDy=0;entryX=0.458;entryY=0.001;entryDx=0;entryDy=0;entryPerimeter=0;" edge="1" parent="1" source="188" target="193">
                    <mxGeometry width="50" height="50" relative="1" as="geometry">
                        <mxPoint x="620" y="2820" as="sourcePoint"/>
                        <mxPoint x="670" y="2770" as="targetPoint"/>
                    </mxGeometry>
                </mxCell>
                <mxCell id="214" value="" style="endArrow=classic;html=1;entryX=0.5;entryY=1;entryDx=0;entryDy=0;exitX=0.701;exitY=0.04;exitDx=0;exitDy=0;exitPerimeter=0;" edge="1" parent="1" source="193" target="188">
                    <mxGeometry width="50" height="50" relative="1" as="geometry">
                        <mxPoint x="620" y="2840" as="sourcePoint"/>
                        <mxPoint x="670" y="2790" as="targetPoint"/>
                    </mxGeometry>
                </mxCell>
                <mxCell id="215" value="" style="endArrow=classic;html=1;exitX=0.946;exitY=0.733;exitDx=0;exitDy=0;exitPerimeter=0;entryX=0.014;entryY=0.398;entryDx=0;entryDy=0;entryPerimeter=0;" edge="1" parent="1" source="185" target="188">
                    <mxGeometry width="50" height="50" relative="1" as="geometry">
                        <mxPoint x="420" y="2510" as="sourcePoint"/>
                        <mxPoint x="470" y="2460" as="targetPoint"/>
                    </mxGeometry>
                </mxCell>
                <mxCell id="216" value="" style="group" vertex="1" connectable="0" parent="1">
                    <mxGeometry x="333" y="2730" width="80" height="80" as="geometry"/>
                </mxCell>
                <mxCell id="217" value="" style="ellipse;whiteSpace=wrap;html=1;aspect=fixed;" vertex="1" parent="216">
                    <mxGeometry width="80" height="80" as="geometry"/>
                </mxCell>
                <mxCell id="218" value="" style="ellipse;whiteSpace=wrap;html=1;aspect=fixed;" vertex="1" parent="216">
                    <mxGeometry x="10.5" y="10.5" width="59" height="59" as="geometry"/>
                </mxCell>
                <mxCell id="219" value="" style="endArrow=classic;html=1;exitX=0;exitY=0.625;exitDx=0;exitDy=0;exitPerimeter=0;entryX=1;entryY=0;entryDx=0;entryDy=0;" edge="1" parent="1" source="188" target="217">
                    <mxGeometry width="50" height="50" relative="1" as="geometry">
                        <mxPoint x="460" y="2650" as="sourcePoint"/>
                        <mxPoint x="510" y="2600" as="targetPoint"/>
                    </mxGeometry>
                </mxCell>
                <mxCell id="194" value="" style="endArrow=classic;html=1;exitX=0.405;exitY=0.004;exitDx=0;exitDy=0;exitPerimeter=0;entryX=1;entryY=1;entryDx=0;entryDy=0;" edge="1" parent="1" source="188" target="189">
                    <mxGeometry width="50" height="50" relative="1" as="geometry">
                        <mxPoint x="670" y="2440" as="sourcePoint"/>
                        <mxPoint x="720" y="2390" as="targetPoint"/>
                    </mxGeometry>
                </mxCell>
                <mxCell id="196" value="Petición" style="text;html=1;align=center;verticalAlign=middle;whiteSpace=wrap;rounded=0;rotation=85;" vertex="1" parent="1">
                    <mxGeometry x="640" y="2330" width="60" height="30" as="geometry"/>
                </mxCell>
                <mxCell id="195" value="" style="endArrow=classic;html=1;exitX=0.259;exitY=0.934;exitDx=0;exitDy=0;exitPerimeter=0;entryX=0;entryY=0;entryDx=0;entryDy=0;" edge="1" parent="1" source="189" target="188">
                    <mxGeometry width="50" height="50" relative="1" as="geometry">
                        <mxPoint x="540" y="2300" as="sourcePoint"/>
                        <mxPoint x="590" y="2250" as="targetPoint"/>
                    </mxGeometry>
                </mxCell>
                <mxCell id="197" value="Retorno" style="text;html=1;align=center;verticalAlign=middle;whiteSpace=wrap;rounded=0;rotation=-109;" vertex="1" parent="1">
                    <mxGeometry x="555" y="2360" width="60" height="30" as="geometry"/>
                </mxCell>
                <mxCell id="223" value="Petición" style="text;html=1;align=center;verticalAlign=middle;whiteSpace=wrap;rounded=0;rotation=-35;" vertex="1" parent="1">
                    <mxGeometry x="820" y="2390" width="60" height="30" as="geometry"/>
                </mxCell>
                <mxCell id="224" value="Petición" style="text;html=1;align=center;verticalAlign=middle;whiteSpace=wrap;rounded=0;rotation=0;" vertex="1" parent="1">
                    <mxGeometry x="810" y="2540" width="60" height="30" as="geometry"/>
                </mxCell>
                <mxCell id="225" value="Petición" style="text;html=1;align=center;verticalAlign=middle;whiteSpace=wrap;rounded=0;rotation=50;" vertex="1" parent="1">
                    <mxGeometry x="760" y="2680" width="60" height="30" as="geometry"/>
                </mxCell>
                <mxCell id="226" value="Petición" style="text;html=1;align=center;verticalAlign=middle;whiteSpace=wrap;rounded=0;rotation=-80;" vertex="1" parent="1">
                    <mxGeometry x="570" y="2640" width="60" height="30" as="geometry"/>
                </mxCell>
                <mxCell id="227" value="Retorno" style="text;html=1;align=center;verticalAlign=middle;whiteSpace=wrap;rounded=0;rotation=-44;" vertex="1" parent="1">
                    <mxGeometry x="750" y="2320" width="60" height="30" as="geometry"/>
                </mxCell>
                <mxCell id="228" value="Retorno" style="text;html=1;align=center;verticalAlign=middle;whiteSpace=wrap;rounded=0;rotation=0;" vertex="1" parent="1">
                    <mxGeometry x="810" y="2470" width="60" height="30" as="geometry"/>
                </mxCell>
                <mxCell id="229" value="Retorno" style="text;html=1;align=center;verticalAlign=middle;whiteSpace=wrap;rounded=0;rotation=46;" vertex="1" parent="1">
                    <mxGeometry x="830" y="2640" width="60" height="30" as="geometry"/>
                </mxCell>
                <mxCell id="230" value="Retorno" style="text;html=1;align=center;verticalAlign=middle;whiteSpace=wrap;rounded=0;rotation=-76;" vertex="1" parent="1">
                    <mxGeometry x="640" y="2670" width="60" height="30" as="geometry"/>
                </mxCell>
                <mxCell id="231" value="Entrada" style="text;html=1;align=center;verticalAlign=middle;whiteSpace=wrap;rounded=0;" vertex="1" parent="1">
                    <mxGeometry x="345" y="2320" width="60" height="30" as="geometry"/>
                </mxCell>
                <mxCell id="232" value="Salida" style="text;html=1;align=center;verticalAlign=middle;whiteSpace=wrap;rounded=0;" vertex="1" parent="1">
                    <mxGeometry x="343" y="2700" width="60" height="30" as="geometry"/>
                </mxCell>
                <mxCell id="233" value="" style="endArrow=classic;html=1;entryX=0.5;entryY=1;entryDx=0;entryDy=0;" edge="1" parent="1" target="193">
                    <mxGeometry width="50" height="50" relative="1" as="geometry">
                        <mxPoint x="620" y="2840" as="sourcePoint"/>
                        <mxPoint x="680" y="2600" as="targetPoint"/>
                    </mxGeometry>
                </mxCell>
                <mxCell id="193" value="Reservas Mensuales de Apartamento" style="ellipse;whiteSpace=wrap;html=1;aspect=fixed;" vertex="1" parent="1">
                    <mxGeometry x="530" y="2740.5" width="150" height="150" as="geometry"/>
                </mxCell>
                <mxCell id="236" value="Administrador" style="shape=umlActor;verticalLabelPosition=bottom;verticalAlign=top;html=1;outlineConnect=0;" vertex="1" parent="1">
                    <mxGeometry x="1624" y="2338" width="30" height="60" as="geometry"/>
                </mxCell>
                <mxCell id="237" value="Usuario" style="shape=umlActor;verticalLabelPosition=bottom;verticalAlign=top;html=1;outlineConnect=0;" vertex="1" parent="1">
                    <mxGeometry x="2200" y="2338" width="30" height="60" as="geometry"/>
                </mxCell>
                <mxCell id="238" value="Editar Edificio" style="ellipse;whiteSpace=wrap;html=1;" vertex="1" parent="1">
                    <mxGeometry x="1770" y="2160" width="120" height="80" as="geometry"/>
                </mxCell>
                <mxCell id="239" value="Listar Edificios" style="ellipse;whiteSpace=wrap;html=1;" vertex="1" parent="1">
                    <mxGeometry x="1770" y="2270" width="120" height="80" as="geometry"/>
                </mxCell>
                <mxCell id="240" value="Reservas Mensuales de Apartamento" style="ellipse;whiteSpace=wrap;html=1;" vertex="1" parent="1">
                    <mxGeometry x="1770" y="2510" width="120" height="80" as="geometry"/>
                </mxCell>
                <mxCell id="241" value="Apartamentos Disponibles" style="ellipse;whiteSpace=wrap;html=1;" vertex="1" parent="1">
                    <mxGeometry x="1770" y="2390" width="120" height="80" as="geometry"/>
                </mxCell>
                <mxCell id="245" value="Reservar Apartamento" style="ellipse;whiteSpace=wrap;html=1;" vertex="1" parent="1">
                    <mxGeometry x="1960" y="2160" width="120" height="80" as="geometry"/>
                </mxCell>
                <mxCell id="246" value="" style="endArrow=none;html=1;entryX=0;entryY=0.5;entryDx=0;entryDy=0;" edge="1" parent="1" target="238">
                    <mxGeometry width="50" height="50" relative="1" as="geometry">
                        <mxPoint x="1660" y="2370" as="sourcePoint"/>
                        <mxPoint x="1710" y="2320" as="targetPoint"/>
                    </mxGeometry>
                </mxCell>
                <mxCell id="247" value="" style="endArrow=none;html=1;entryX=0;entryY=0.5;entryDx=0;entryDy=0;" edge="1" parent="1" target="239">
                    <mxGeometry width="50" height="50" relative="1" as="geometry">
                        <mxPoint x="1660" y="2370" as="sourcePoint"/>
                        <mxPoint x="1710" y="2320" as="targetPoint"/>
                    </mxGeometry>
                </mxCell>
                <mxCell id="248" value="" style="endArrow=none;html=1;entryX=0;entryY=0.5;entryDx=0;entryDy=0;" edge="1" parent="1" target="241">
                    <mxGeometry width="50" height="50" relative="1" as="geometry">
                        <mxPoint x="1660" y="2370" as="sourcePoint"/>
                        <mxPoint x="1710" y="2320" as="targetPoint"/>
                    </mxGeometry>
                </mxCell>
                <mxCell id="249" value="" style="endArrow=none;html=1;entryX=0;entryY=0.5;entryDx=0;entryDy=0;" edge="1" parent="1" target="240">
                    <mxGeometry width="50" height="50" relative="1" as="geometry">
                        <mxPoint x="1660" y="2370" as="sourcePoint"/>
                        <mxPoint x="1710" y="2320" as="targetPoint"/>
                    </mxGeometry>
                </mxCell>
                <mxCell id="250" value="" style="endArrow=none;html=1;entryX=1;entryY=0.5;entryDx=0;entryDy=0;" edge="1" parent="1" target="245">
                    <mxGeometry width="50" height="50" relative="1" as="geometry">
                        <mxPoint x="2190" y="2370" as="sourcePoint"/>
                        <mxPoint x="2310" y="2320" as="targetPoint"/>
                    </mxGeometry>
                </mxCell>
                <mxCell id="251" value="" style="endArrow=none;html=1;entryX=1;entryY=0.5;entryDx=0;entryDy=0;" edge="1" parent="1" target="239">
                    <mxGeometry width="50" height="50" relative="1" as="geometry">
                        <mxPoint x="2190" y="2370" as="sourcePoint"/>
                        <mxPoint x="2310" y="2320" as="targetPoint"/>
                    </mxGeometry>
                </mxCell>
                <mxCell id="252" value="" style="endArrow=none;html=1;entryX=1;entryY=0.5;entryDx=0;entryDy=0;" edge="1" parent="1" target="241">
                    <mxGeometry width="50" height="50" relative="1" as="geometry">
                        <mxPoint x="2190" y="2370" as="sourcePoint"/>
                        <mxPoint x="2310" y="2320" as="targetPoint"/>
                    </mxGeometry>
                </mxCell>
                <mxCell id="253" value="" style="endArrow=none;html=1;entryX=1;entryY=0.5;entryDx=0;entryDy=0;" edge="1" parent="1" target="240">
                    <mxGeometry width="50" height="50" relative="1" as="geometry">
                        <mxPoint x="2190" y="2370" as="sourcePoint"/>
                        <mxPoint x="2310" y="2320" as="targetPoint"/>
                    </mxGeometry>
                </mxCell>
                <mxCell id="256" value="Sistema de Gestión de Apartamentos" style="swimlane;whiteSpace=wrap;html=1;" vertex="1" parent="1">
                    <mxGeometry x="1720" y="2100" width="420" height="510" as="geometry"/>
                </mxCell>
                <mxCell id="259" value="Usuario" style="shape=umlActor;verticalLabelPosition=bottom;verticalAlign=top;html=1;outlineConnect=0;" vertex="1" parent="1">
                    <mxGeometry x="-1530" y="-1060" width="30" height="60" as="geometry"/>
                </mxCell>
                <mxCell id="264" value="Interfaz Gráfica" style="rounded=0;whiteSpace=wrap;html=1;" vertex="1" parent="1">
                    <mxGeometry x="-1385" y="-1050" width="120" height="60" as="geometry"/>
                </mxCell>
                <mxCell id="265" value="Base de Datos" style="rounded=0;whiteSpace=wrap;html=1;" vertex="1" parent="1">
                    <mxGeometry x="-570" y="-1050" width="120" height="60" as="geometry"/>
                </mxCell>
                <mxCell id="266" value="Controlador" style="rounded=0;whiteSpace=wrap;html=1;" vertex="1" parent="1">
                    <mxGeometry x="-1175" y="-1050" width="120" height="60" as="geometry"/>
                </mxCell>
                <mxCell id="267" value="Edificio" style="rounded=0;whiteSpace=wrap;html=1;" vertex="1" parent="1">
                    <mxGeometry x="-975" y="-1050" width="120" height="60" as="geometry"/>
                </mxCell>
                <mxCell id="268" value="Reserva" style="rounded=0;whiteSpace=wrap;html=1;" vertex="1" parent="1">
                    <mxGeometry x="-770" y="-1050" width="120" height="60" as="geometry"/>
                </mxCell>
                <mxCell id="271" style="edgeStyle=none;html=1;dashed=1;endArrow=none;endFill=0;" edge="1" parent="1" source="272">
                    <mxGeometry relative="1" as="geometry">
                        <mxPoint x="-1115" y="-370" as="targetPoint"/>
                        <mxPoint x="-1115" y="-990" as="sourcePoint"/>
                    </mxGeometry>
                </mxCell>
                <mxCell id="273" style="edgeStyle=none;html=1;dashed=1;endArrow=none;endFill=0;" edge="1" parent="1">
                    <mxGeometry relative="1" as="geometry">
                        <mxPoint x="-915" y="-370" as="targetPoint"/>
                        <mxPoint x="-915" y="-990" as="sourcePoint"/>
                    </mxGeometry>
                </mxCell>
                <mxCell id="274" value="" style="rounded=0;whiteSpace=wrap;html=1;" vertex="1" parent="1">
                    <mxGeometry x="-925" y="-890" width="20" height="100" as="geometry"/>
                </mxCell>
                <mxCell id="275" style="edgeStyle=none;html=1;dashed=1;endArrow=none;endFill=0;" edge="1" parent="1" source="276">
                    <mxGeometry relative="1" as="geometry">
                        <mxPoint x="-710" y="-370" as="targetPoint"/>
                        <mxPoint x="-710" y="-990" as="sourcePoint"/>
                    </mxGeometry>
                </mxCell>
                <mxCell id="277" style="edgeStyle=none;html=1;dashed=1;endArrow=none;endFill=0;" edge="1" parent="1">
                    <mxGeometry relative="1" as="geometry">
                        <mxPoint x="-510" y="-370" as="targetPoint"/>
                        <mxPoint x="-510" y="-990" as="sourcePoint"/>
                    </mxGeometry>
                </mxCell>
                <mxCell id="278" value="" style="rounded=0;whiteSpace=wrap;html=1;" vertex="1" parent="1">
                    <mxGeometry x="-520" y="-660" width="20" height="80" as="geometry"/>
                </mxCell>
                <mxCell id="280" value="" style="edgeStyle=none;html=1;dashed=1;endArrow=none;endFill=0;" edge="1" parent="1" source="264" target="269">
                    <mxGeometry relative="1" as="geometry">
                        <mxPoint x="-1325" y="-370" as="targetPoint"/>
                        <mxPoint x="-1325" y="-990" as="sourcePoint"/>
                    </mxGeometry>
                </mxCell>
                <mxCell id="269" value="" style="rounded=0;whiteSpace=wrap;html=1;" vertex="1" parent="1">
                    <mxGeometry x="-1335" y="-930" width="20" height="400" as="geometry"/>
                </mxCell>
                <mxCell id="281" value="" style="edgeStyle=none;html=1;dashed=1;endArrow=none;endFill=0;" edge="1" parent="1" target="258">
                    <mxGeometry relative="1" as="geometry">
                        <mxPoint x="-1515.53" y="-359" as="targetPoint"/>
                        <mxPoint x="-1515.53" y="-979" as="sourcePoint"/>
                    </mxGeometry>
                </mxCell>
                <mxCell id="258" value="" style="rounded=0;whiteSpace=wrap;html=1;" vertex="1" parent="1">
                    <mxGeometry x="-1525" y="-960" width="20" height="460" as="geometry"/>
                </mxCell>
                <mxCell id="282" value="" style="endArrow=classic;html=1;entryX=0;entryY=0;entryDx=0;entryDy=0;exitX=1.017;exitY=0.063;exitDx=0;exitDy=0;exitPerimeter=0;" edge="1" parent="1" source="258" target="269">
                    <mxGeometry width="50" height="50" relative="1" as="geometry">
                        <mxPoint x="-1490" y="-930" as="sourcePoint"/>
                        <mxPoint x="-1400" y="-950" as="targetPoint"/>
                    </mxGeometry>
                </mxCell>
                <mxCell id="283" value="1. Reservar Apartamento" style="text;html=1;align=center;verticalAlign=middle;whiteSpace=wrap;rounded=0;" vertex="1" parent="1">
                    <mxGeometry x="-1500" y="-960" width="165" height="30" as="geometry"/>
                </mxCell>
                <mxCell id="284" value="" style="endArrow=classic;html=1;exitX=1.002;exitY=0.051;exitDx=0;exitDy=0;exitPerimeter=0;entryX=0;entryY=0;entryDx=0;entryDy=0;" edge="1" parent="1" source="269" target="272">
                    <mxGeometry width="50" height="50" relative="1" as="geometry">
                        <mxPoint x="-1300" y="-890" as="sourcePoint"/>
                        <mxPoint x="-1130" y="-910" as="targetPoint"/>
                    </mxGeometry>
                </mxCell>
                <mxCell id="285" value="" style="edgeStyle=none;html=1;dashed=1;endArrow=none;endFill=0;" edge="1" parent="1" target="272">
                    <mxGeometry relative="1" as="geometry">
                        <mxPoint x="-1115" y="-370" as="targetPoint"/>
                        <mxPoint x="-1115" y="-990" as="sourcePoint"/>
                    </mxGeometry>
                </mxCell>
                <mxCell id="272" value="" style="rounded=0;whiteSpace=wrap;html=1;" vertex="1" parent="1">
                    <mxGeometry x="-1125" y="-910" width="20" height="390" as="geometry"/>
                </mxCell>
                <mxCell id="286" value="1.1 solicitarReserva(edID, aptoID, dia,mes,anno,dur)" style="text;html=1;align=center;verticalAlign=middle;whiteSpace=wrap;rounded=0;" vertex="1" parent="1">
                    <mxGeometry x="-1315" y="-950" width="195" height="50" as="geometry"/>
                </mxCell>
                <mxCell id="287" value="" style="endArrow=classic;html=1;exitX=0.975;exitY=0.051;exitDx=0;exitDy=0;exitPerimeter=0;entryX=0;entryY=0;entryDx=0;entryDy=0;" edge="1" parent="1" source="272" target="274">
                    <mxGeometry width="50" height="50" relative="1" as="geometry">
                        <mxPoint x="-1070" y="-870" as="sourcePoint"/>
                        <mxPoint x="-950" y="-890" as="targetPoint"/>
                    </mxGeometry>
                </mxCell>
                <mxCell id="288" value="1.1.1 verificardisponibilidad(edID,&lt;div&gt;aptoID,dia,mes,anno,dur)&lt;/div&gt;" style="text;html=1;align=center;verticalAlign=middle;whiteSpace=wrap;rounded=0;" vertex="1" parent="1">
                    <mxGeometry x="-1120" y="-930" width="215" height="50" as="geometry"/>
                </mxCell>
                <mxCell id="289" value="" style="endArrow=classic;html=1;exitX=0;exitY=0.75;exitDx=0;exitDy=0;entryX=0.984;entryY=0.244;entryDx=0;entryDy=0;entryPerimeter=0;" edge="1" parent="1" source="274" target="272">
                    <mxGeometry width="50" height="50" relative="1" as="geometry">
                        <mxPoint x="-1030" y="-800" as="sourcePoint"/>
                        <mxPoint x="-980" y="-850" as="targetPoint"/>
                    </mxGeometry>
                </mxCell>
                <mxCell id="290" value="1.1.2 True (si disponible)" style="text;html=1;align=center;verticalAlign=middle;whiteSpace=wrap;rounded=0;" vertex="1" parent="1">
                    <mxGeometry x="-1080" y="-840" width="140" height="30" as="geometry"/>
                </mxCell>
                <mxCell id="291" value="" style="endArrow=classic;html=1;exitX=0.977;exitY=0.41;exitDx=0;exitDy=0;exitPerimeter=0;entryX=0;entryY=0;entryDx=0;entryDy=0;" edge="1" parent="1" source="272">
                    <mxGeometry width="50" height="50" relative="1" as="geometry">
                        <mxPoint x="-1105" y="-748.8199999999997" as="sourcePoint"/>
                        <mxPoint x="-719.84" y="-750" as="targetPoint"/>
                    </mxGeometry>
                </mxCell>
                <mxCell id="292" value="1.1.2 new Reserva (edID, aptoID, dia, mes, anno, dur)" style="text;html=1;align=center;verticalAlign=middle;whiteSpace=wrap;rounded=0;" vertex="1" parent="1">
                    <mxGeometry x="-1090" y="-780" width="300" height="30" as="geometry"/>
                </mxCell>
                <mxCell id="293" value="" style="edgeStyle=none;html=1;dashed=1;endArrow=none;endFill=0;" edge="1" parent="1" target="276">
                    <mxGeometry relative="1" as="geometry">
                        <mxPoint x="-710" y="-370" as="targetPoint"/>
                        <mxPoint x="-710" y="-990" as="sourcePoint"/>
                    </mxGeometry>
                </mxCell>
                <mxCell id="276" value="" style="rounded=0;whiteSpace=wrap;html=1;" vertex="1" parent="1">
                    <mxGeometry x="-720" y="-750" width="20" height="40" as="geometry"/>
                </mxCell>
                <mxCell id="294" value="" style="endArrow=classic;html=1;exitX=1.02;exitY=0.639;exitDx=0;exitDy=0;exitPerimeter=0;entryX=0;entryY=0;entryDx=0;entryDy=0;" edge="1" parent="1" source="272" target="278">
                    <mxGeometry width="50" height="50" relative="1" as="geometry">
                        <mxPoint x="-1000" y="-640" as="sourcePoint"/>
                        <mxPoint x="-530" y="-660" as="targetPoint"/>
                    </mxGeometry>
                </mxCell>
                <mxCell id="295" value="1.1.3 guardarReserva(reserva)" style="text;html=1;align=center;verticalAlign=middle;whiteSpace=wrap;rounded=0;" vertex="1" parent="1">
                    <mxGeometry x="-1080" y="-690" width="190" height="30" as="geometry"/>
                </mxCell>
                <mxCell id="296" value="" style="endArrow=classic;html=1;exitX=0;exitY=0.75;exitDx=0;exitDy=0;entryX=1.026;entryY=0.794;entryDx=0;entryDy=0;entryPerimeter=0;" edge="1" parent="1" source="278" target="272">
                    <mxGeometry width="50" height="50" relative="1" as="geometry">
                        <mxPoint x="-690" y="-580" as="sourcePoint"/>
                        <mxPoint x="-640" y="-630" as="targetPoint"/>
                    </mxGeometry>
                </mxCell>
                <mxCell id="297" value="1.1.3.1 Confirmacion de almacenamiento" style="text;html=1;align=center;verticalAlign=middle;whiteSpace=wrap;rounded=0;" vertex="1" parent="1">
                    <mxGeometry x="-770" y="-625" width="250" height="30" as="geometry"/>
                </mxCell>
                <mxCell id="298" value="" style="endArrow=classic;html=1;exitX=0.003;exitY=0.913;exitDx=0;exitDy=0;exitPerimeter=0;entryX=1.009;entryY=0.94;entryDx=0;entryDy=0;entryPerimeter=0;" edge="1" parent="1" source="272" target="269">
                    <mxGeometry width="50" height="50" relative="1" as="geometry">
                        <mxPoint x="-1220" y="-560" as="sourcePoint"/>
                        <mxPoint x="-1300" y="-554" as="targetPoint"/>
                    </mxGeometry>
                </mxCell>
                <mxCell id="299" value="1.1.3.2 mostrarConfirmacion()" style="text;html=1;align=center;verticalAlign=middle;whiteSpace=wrap;rounded=0;" vertex="1" parent="1">
                    <mxGeometry x="-1300" y="-580" width="170" height="30" as="geometry"/>
                </mxCell>
                <mxCell id="338" style="edgeStyle=none;html=1;dashed=1;endArrow=none;endFill=0;" edge="1" source="384" parent="1">
                    <mxGeometry relative="1" as="geometry">
                        <mxPoint x="-305" y="-210" as="targetPoint"/>
                        <mxPoint x="-305.53" y="-969" as="sourcePoint"/>
                    </mxGeometry>
                </mxCell>
                <mxCell id="339" style="edgeStyle=none;html=1;dashed=1;endArrow=none;endFill=0;" edge="1" source="386" parent="1">
                    <mxGeometry relative="1" as="geometry">
                        <mxPoint x="-115" y="-230" as="targetPoint"/>
                    </mxGeometry>
                </mxCell>
                <mxCell id="340" value="Usuario" style="shape=umlActor;verticalLabelPosition=bottom;verticalAlign=top;html=1;outlineConnect=0;" vertex="1" parent="1">
                    <mxGeometry x="-320" y="-1050" width="30" height="60" as="geometry"/>
                </mxCell>
                <mxCell id="341" value="Interfaz Gráfica" style="rounded=0;whiteSpace=wrap;html=1;" vertex="1" parent="1">
                    <mxGeometry x="-175" y="-1040" width="120" height="60" as="geometry"/>
                </mxCell>
                <mxCell id="342" value="Base de Datos" style="rounded=0;whiteSpace=wrap;html=1;" vertex="1" parent="1">
                    <mxGeometry x="250" y="-1040" width="120" height="60" as="geometry"/>
                </mxCell>
                <mxCell id="343" value="Controlador" style="rounded=0;whiteSpace=wrap;html=1;" vertex="1" parent="1">
                    <mxGeometry x="35" y="-1040" width="120" height="60" as="geometry"/>
                </mxCell>
                <mxCell id="346" style="edgeStyle=none;html=1;dashed=1;endArrow=none;endFill=0;" edge="1" source="360" parent="1">
                    <mxGeometry relative="1" as="geometry">
                        <mxPoint x="95" y="-230" as="targetPoint"/>
                        <mxPoint x="95" y="-980" as="sourcePoint"/>
                    </mxGeometry>
                </mxCell>
                <mxCell id="347" style="edgeStyle=none;html=1;dashed=1;endArrow=none;endFill=0;" edge="1" parent="1" source="396">
                    <mxGeometry relative="1" as="geometry">
                        <mxPoint x="310" y="-240" as="targetPoint"/>
                        <mxPoint x="309.44" y="-980" as="sourcePoint"/>
                    </mxGeometry>
                </mxCell>
                <mxCell id="352" value="" style="edgeStyle=none;html=1;dashed=1;endArrow=none;endFill=0;" edge="1" source="341" target="353" parent="1">
                    <mxGeometry relative="1" as="geometry">
                        <mxPoint x="-115" y="-360" as="targetPoint"/>
                        <mxPoint x="-115" y="-980" as="sourcePoint"/>
                    </mxGeometry>
                </mxCell>
                <mxCell id="353" value="" style="rounded=0;whiteSpace=wrap;html=1;" vertex="1" parent="1">
                    <mxGeometry x="-125" y="-920" width="20" height="220" as="geometry"/>
                </mxCell>
                <mxCell id="354" value="" style="edgeStyle=none;html=1;dashed=1;endArrow=none;endFill=0;" edge="1" target="355" parent="1">
                    <mxGeometry relative="1" as="geometry">
                        <mxPoint x="-305.53" y="-349" as="targetPoint"/>
                        <mxPoint x="-305.53" y="-969" as="sourcePoint"/>
                    </mxGeometry>
                </mxCell>
                <mxCell id="355" value="" style="rounded=0;whiteSpace=wrap;html=1;" vertex="1" parent="1">
                    <mxGeometry x="-315" y="-950" width="20" height="280" as="geometry"/>
                </mxCell>
                <mxCell id="356" value="" style="endArrow=classic;html=1;entryX=0;entryY=0;entryDx=0;entryDy=0;exitX=1.011;exitY=0.106;exitDx=0;exitDy=0;exitPerimeter=0;" edge="1" source="355" target="353" parent="1">
                    <mxGeometry width="50" height="50" relative="1" as="geometry">
                        <mxPoint x="-280" y="-920" as="sourcePoint"/>
                        <mxPoint x="-190" y="-940" as="targetPoint"/>
                    </mxGeometry>
                </mxCell>
                <mxCell id="357" value="1. Listar Edificios" style="text;html=1;align=center;verticalAlign=middle;whiteSpace=wrap;rounded=0;" vertex="1" parent="1">
                    <mxGeometry x="-290" y="-950" width="165" height="30" as="geometry"/>
                </mxCell>
                <mxCell id="358" value="" style="endArrow=classic;html=1;exitX=1.002;exitY=0.091;exitDx=0;exitDy=0;exitPerimeter=0;entryX=0;entryY=0;entryDx=0;entryDy=0;" edge="1" source="353" target="360" parent="1">
                    <mxGeometry width="50" height="50" relative="1" as="geometry">
                        <mxPoint x="-90" y="-880" as="sourcePoint"/>
                        <mxPoint x="80" y="-900" as="targetPoint"/>
                    </mxGeometry>
                </mxCell>
                <mxCell id="359" value="" style="edgeStyle=none;html=1;dashed=1;endArrow=none;endFill=0;" edge="1" target="360" parent="1">
                    <mxGeometry relative="1" as="geometry">
                        <mxPoint x="95" y="-360" as="targetPoint"/>
                        <mxPoint x="95" y="-980" as="sourcePoint"/>
                    </mxGeometry>
                </mxCell>
                <mxCell id="360" value="" style="rounded=0;whiteSpace=wrap;html=1;" vertex="1" parent="1">
                    <mxGeometry x="85" y="-900" width="20" height="170" as="geometry"/>
                </mxCell>
                <mxCell id="361" value="1.1 getListaEdificios()" style="text;html=1;align=center;verticalAlign=middle;whiteSpace=wrap;rounded=0;" vertex="1" parent="1">
                    <mxGeometry x="-110" y="-940" width="195" height="50" as="geometry"/>
                </mxCell>
                <mxCell id="374" value="" style="endArrow=classic;html=1;exitX=0.003;exitY=0.913;exitDx=0;exitDy=0;exitPerimeter=0;entryX=1.009;entryY=0.94;entryDx=0;entryDy=0;entryPerimeter=0;" edge="1" parent="1">
                    <mxGeometry width="50" height="50" relative="1" as="geometry">
                        <mxPoint x="84.87999999999994" y="-759.9299999999998" as="sourcePoint"/>
                        <mxPoint x="-105.00000000000017" y="-760" as="targetPoint"/>
                    </mxGeometry>
                </mxCell>
                <mxCell id="375" value="1.1.3 mostrarLista()" style="text;html=1;align=center;verticalAlign=middle;whiteSpace=wrap;rounded=0;" vertex="1" parent="1">
                    <mxGeometry x="-92.5" y="-790" width="170" height="30" as="geometry"/>
                </mxCell>
                <mxCell id="377" value="" style="edgeStyle=none;html=1;dashed=1;endArrow=none;endFill=0;" edge="1" parent="1" target="376">
                    <mxGeometry relative="1" as="geometry">
                        <mxPoint x="309.44" y="-360" as="targetPoint"/>
                        <mxPoint x="309.44" y="-980" as="sourcePoint"/>
                    </mxGeometry>
                </mxCell>
                <mxCell id="376" value="" style="rounded=0;whiteSpace=wrap;html=1;" vertex="1" parent="1">
                    <mxGeometry x="300" y="-870" width="20" height="110" as="geometry"/>
                </mxCell>
                <mxCell id="378" value="" style="endArrow=classic;html=1;entryX=0;entryY=0;entryDx=0;entryDy=0;exitX=1.003;exitY=0.174;exitDx=0;exitDy=0;exitPerimeter=0;" edge="1" parent="1" source="360" target="376">
                    <mxGeometry width="50" height="50" relative="1" as="geometry">
                        <mxPoint x="170" y="-880" as="sourcePoint"/>
                        <mxPoint x="210" y="-880" as="targetPoint"/>
                    </mxGeometry>
                </mxCell>
                <mxCell id="379" value="1.1.1 consultarEdificios()" style="text;html=1;align=center;verticalAlign=middle;whiteSpace=wrap;rounded=0;" vertex="1" parent="1">
                    <mxGeometry x="120" y="-900" width="160" height="30" as="geometry"/>
                </mxCell>
                <mxCell id="380" value="" style="endArrow=classic;html=1;entryX=1;entryY=0.588;entryDx=0;entryDy=0;exitX=0.01;exitY=0.634;exitDx=0;exitDy=0;exitPerimeter=0;entryPerimeter=0;" edge="1" parent="1" source="376" target="360">
                    <mxGeometry width="50" height="50" relative="1" as="geometry">
                        <mxPoint x="200" y="-770" as="sourcePoint"/>
                        <mxPoint x="250" y="-820" as="targetPoint"/>
                    </mxGeometry>
                </mxCell>
                <mxCell id="381" value="1.1.2 List&amp;lt;Edificios&amp;gt;&amp;nbsp;" style="text;html=1;align=center;verticalAlign=middle;whiteSpace=wrap;rounded=0;" vertex="1" parent="1">
                    <mxGeometry x="120" y="-830" width="160" height="30" as="geometry"/>
                </mxCell>
                <mxCell id="385" value="" style="edgeStyle=none;html=1;dashed=1;endArrow=none;endFill=0;" edge="1" parent="1" source="355" target="384">
                    <mxGeometry relative="1" as="geometry">
                        <mxPoint x="-305.53" y="-349" as="targetPoint"/>
                        <mxPoint x="-305" y="-670" as="sourcePoint"/>
                    </mxGeometry>
                </mxCell>
                <mxCell id="384" value="" style="rounded=0;whiteSpace=wrap;html=1;" vertex="1" parent="1">
                    <mxGeometry x="-315" y="-640" width="20" height="90" as="geometry"/>
                </mxCell>
                <mxCell id="387" value="" style="edgeStyle=none;html=1;dashed=1;endArrow=none;endFill=0;" edge="1" parent="1" source="353" target="386">
                    <mxGeometry relative="1" as="geometry">
                        <mxPoint x="-115" y="-360" as="targetPoint"/>
                        <mxPoint x="-115" y="-700" as="sourcePoint"/>
                    </mxGeometry>
                </mxCell>
                <mxCell id="386" value="" style="rounded=0;whiteSpace=wrap;html=1;" vertex="1" parent="1">
                    <mxGeometry x="-125" y="-620" width="20" height="350" as="geometry"/>
                </mxCell>
                <mxCell id="390" value="" style="rounded=0;whiteSpace=wrap;html=1;" vertex="1" parent="1">
                    <mxGeometry x="85" y="-600" width="20" height="280" as="geometry"/>
                </mxCell>
                <mxCell id="392" value="Edificio" style="rounded=0;whiteSpace=wrap;html=1;" vertex="1" parent="1">
                    <mxGeometry x="470" y="-1040" width="120" height="60" as="geometry"/>
                </mxCell>
                <mxCell id="393" style="edgeStyle=none;html=1;dashed=1;endArrow=none;endFill=0;" edge="1" parent="1" source="394">
                    <mxGeometry relative="1" as="geometry">
                        <mxPoint x="530" y="-240" as="targetPoint"/>
                        <mxPoint x="529" y="-980" as="sourcePoint"/>
                    </mxGeometry>
                </mxCell>
                <mxCell id="395" value="" style="edgeStyle=none;html=1;dashed=1;endArrow=none;endFill=0;" edge="1" parent="1" target="394">
                    <mxGeometry relative="1" as="geometry">
                        <mxPoint x="530" y="-350" as="targetPoint"/>
                        <mxPoint x="529" y="-980" as="sourcePoint"/>
                    </mxGeometry>
                </mxCell>
                <mxCell id="394" value="" style="rounded=0;whiteSpace=wrap;html=1;" vertex="1" parent="1">
                    <mxGeometry x="520" y="-580" width="20" height="220" as="geometry"/>
                </mxCell>
                <mxCell id="397" value="" style="edgeStyle=none;html=1;dashed=1;endArrow=none;endFill=0;" edge="1" parent="1" source="376" target="396">
                    <mxGeometry relative="1" as="geometry">
                        <mxPoint x="309.44" y="-360" as="targetPoint"/>
                        <mxPoint x="310" y="-760" as="sourcePoint"/>
                    </mxGeometry>
                </mxCell>
                <mxCell id="396" value="" style="rounded=0;whiteSpace=wrap;html=1;" vertex="1" parent="1">
                    <mxGeometry x="300" y="-520" width="20" height="90" as="geometry"/>
                </mxCell>
                <mxCell id="398" value="" style="endArrow=classic;html=1;entryX=0;entryY=0;entryDx=0;entryDy=0;exitX=0.987;exitY=0.227;exitDx=0;exitDy=0;exitPerimeter=0;" edge="1" parent="1" source="384" target="386">
                    <mxGeometry width="50" height="50" relative="1" as="geometry">
                        <mxPoint x="-250" y="-600" as="sourcePoint"/>
                        <mxPoint x="-200" y="-650" as="targetPoint"/>
                    </mxGeometry>
                </mxCell>
                <mxCell id="399" value="" style="endArrow=classic;html=1;entryX=0;entryY=0;entryDx=0;entryDy=0;exitX=0.987;exitY=0.227;exitDx=0;exitDy=0;exitPerimeter=0;" edge="1" parent="1" target="390">
                    <mxGeometry width="50" height="50" relative="1" as="geometry">
                        <mxPoint x="-105" y="-600" as="sourcePoint"/>
                        <mxPoint x="65" y="-600" as="targetPoint"/>
                    </mxGeometry>
                </mxCell>
                <mxCell id="400" value="" style="endArrow=classic;html=1;entryX=0;entryY=0;entryDx=0;entryDy=0;exitX=0.987;exitY=0.227;exitDx=0;exitDy=0;exitPerimeter=0;" edge="1" parent="1" target="394">
                    <mxGeometry width="50" height="50" relative="1" as="geometry">
                        <mxPoint x="105" y="-580.57" as="sourcePoint"/>
                        <mxPoint x="275" y="-580.57" as="targetPoint"/>
                    </mxGeometry>
                </mxCell>
                <mxCell id="401" value="" style="endArrow=classic;html=1;entryX=1;entryY=0;entryDx=0;entryDy=0;" edge="1" parent="1" target="396">
                    <mxGeometry width="50" height="50" relative="1" as="geometry">
                        <mxPoint x="520" y="-520" as="sourcePoint"/>
                        <mxPoint x="390" y="-520" as="targetPoint"/>
                    </mxGeometry>
                </mxCell>
                <mxCell id="402" value="2. Apartamentos Disponibles" style="text;html=1;align=center;verticalAlign=middle;whiteSpace=wrap;rounded=0;" vertex="1" parent="1">
                    <mxGeometry x="-285" y="-650" width="160" height="30" as="geometry"/>
                </mxCell>
                <mxCell id="403" value="2.1 getAptosDisponibles(edID)" style="text;html=1;align=center;verticalAlign=middle;whiteSpace=wrap;rounded=0;" vertex="1" parent="1">
                    <mxGeometry x="-92" y="-625" width="172" height="30" as="geometry"/>
                </mxCell>
                <mxCell id="404" value="2.1.1 getAptosDisponibles()" style="text;html=1;align=center;verticalAlign=middle;whiteSpace=wrap;rounded=0;" vertex="1" parent="1">
                    <mxGeometry x="120" y="-610" width="170" height="30" as="geometry"/>
                </mxCell>
                <mxCell id="405" value="2.1.2 consultarAptos(edID)" style="text;html=1;align=center;verticalAlign=middle;whiteSpace=wrap;rounded=0;" vertex="1" parent="1">
                    <mxGeometry x="333" y="-550" width="167" height="30" as="geometry"/>
                </mxCell>
                <mxCell id="406" value="" style="endArrow=classic;html=1;entryX=0;entryY=0.5;entryDx=0;entryDy=0;exitX=1.029;exitY=0.554;exitDx=0;exitDy=0;exitPerimeter=0;" edge="1" parent="1" source="396" target="394">
                    <mxGeometry width="50" height="50" relative="1" as="geometry">
                        <mxPoint x="360" y="-470" as="sourcePoint"/>
                        <mxPoint x="440" y="-470" as="targetPoint"/>
                    </mxGeometry>
                </mxCell>
                <mxCell id="407" value="2.1.3 List&amp;lt;String&amp;gt; Aptos" style="text;html=1;align=center;verticalAlign=middle;whiteSpace=wrap;rounded=0;" vertex="1" parent="1">
                    <mxGeometry x="333" y="-500" width="167" height="30" as="geometry"/>
                </mxCell>
                <mxCell id="408" value="" style="endArrow=classic;html=1;entryX=1;entryY=0.75;entryDx=0;entryDy=0;exitX=0.014;exitY=0.868;exitDx=0;exitDy=0;exitPerimeter=0;" edge="1" parent="1" source="394" target="390">
                    <mxGeometry width="50" height="50" relative="1" as="geometry">
                        <mxPoint x="390" y="-350" as="sourcePoint"/>
                        <mxPoint x="440" y="-400" as="targetPoint"/>
                    </mxGeometry>
                </mxCell>
                <mxCell id="409" value="2.1.4 List&amp;lt;String&amp;gt; Aptos" style="text;html=1;align=center;verticalAlign=middle;whiteSpace=wrap;rounded=0;" vertex="1" parent="1">
                    <mxGeometry x="345" y="-420" width="145" height="30" as="geometry"/>
                </mxCell>
                <mxCell id="410" value="" style="endArrow=classic;html=1;exitX=-0.05;exitY=0.915;exitDx=0;exitDy=0;exitPerimeter=0;entryX=0.992;entryY=0.791;entryDx=0;entryDy=0;entryPerimeter=0;" edge="1" parent="1" source="390" target="386">
                    <mxGeometry width="50" height="50" relative="1" as="geometry">
                        <mxPoint y="-320" as="sourcePoint"/>
                        <mxPoint x="50" y="-370" as="targetPoint"/>
                    </mxGeometry>
                </mxCell>
                <mxCell id="411" value="2.1.5 mostrarAptosDisponibles()" style="text;html=1;align=center;verticalAlign=middle;whiteSpace=wrap;rounded=0;" vertex="1" parent="1">
                    <mxGeometry x="-96" y="-370" width="180" height="30" as="geometry"/>
                </mxCell>
                <mxCell id="439" value="" style="group" vertex="1" connectable="0" parent="1">
                    <mxGeometry x="1241" y="-1040" width="1119" height="540" as="geometry"/>
                </mxCell>
                <mxCell id="438" value="" style="group" vertex="1" connectable="0" parent="439">
                    <mxGeometry x="239" width="880" height="540" as="geometry"/>
                </mxCell>
                <mxCell id="412" value="" style="rounded=0;whiteSpace=wrap;html=1;" vertex="1" parent="438">
                    <mxGeometry width="880" height="540" as="geometry"/>
                </mxCell>
                <mxCell id="419" value="" style="rounded=0;whiteSpace=wrap;html=1;" vertex="1" parent="438">
                    <mxGeometry y="62.66999999999996" width="292.7" height="477.33" as="geometry"/>
                </mxCell>
                <mxCell id="422" value="" style="rounded=0;whiteSpace=wrap;html=1;" vertex="1" parent="438">
                    <mxGeometry x="292.70000000000005" y="62.66999999999996" width="292.7" height="477.33" as="geometry"/>
                </mxCell>
                <mxCell id="417" value="Cliente" style="rounded=0;whiteSpace=wrap;html=1;" vertex="1" parent="438">
                    <mxGeometry width="292.69565217391306" height="62.674418604651166" as="geometry"/>
                </mxCell>
                <mxCell id="421" value="Sistema" style="rounded=0;whiteSpace=wrap;html=1;" vertex="1" parent="438">
                    <mxGeometry x="292.695652173913" width="292.69565217391306" height="62.674418604651166" as="geometry"/>
                </mxCell>
                <mxCell id="423" value="Base de Datos" style="rounded=0;whiteSpace=wrap;html=1;" vertex="1" parent="438">
                    <mxGeometry x="585.391304347826" width="294.60869565217394" height="62.674418604651166" as="geometry"/>
                </mxCell>
                <mxCell id="431" value="Enviar confirmacion al usuario" style="rounded=1;whiteSpace=wrap;html=1;" vertex="1" parent="438">
                    <mxGeometry x="346" y="421" width="208" height="70" as="geometry"/>
                </mxCell>
                <mxCell id="415" value="Realizar Reserva" style="rounded=1;whiteSpace=wrap;html=1;" vertex="1" parent="438">
                    <mxGeometry x="48" y="100" width="210" height="70" as="geometry"/>
                </mxCell>
                <mxCell id="416" value="Está disponible" style="rounded=1;whiteSpace=wrap;html=1;" vertex="1" parent="438">
                    <mxGeometry x="346" y="160" width="208" height="70" as="geometry"/>
                </mxCell>
                <mxCell id="435" style="edgeStyle=none;html=1;entryX=0.5;entryY=0;entryDx=0;entryDy=0;" edge="1" parent="438" source="415" target="416">
                    <mxGeometry relative="1" as="geometry"/>
                </mxCell>
                <mxCell id="424" value="" style="line;strokeWidth=4;html=1;perimeter=backbonePerimeter;points=[];outlineConnect=0;" vertex="1" parent="438">
                    <mxGeometry x="370" y="280" width="160" height="10" as="geometry"/>
                </mxCell>
                <mxCell id="425" value="" style="endArrow=classic;html=1;exitX=0.5;exitY=1;exitDx=0;exitDy=0;" edge="1" parent="438" source="416" target="424">
                    <mxGeometry width="50" height="50" relative="1" as="geometry">
                        <mxPoint x="440" y="340" as="sourcePoint"/>
                        <mxPoint x="490" y="290" as="targetPoint"/>
                    </mxGeometry>
                </mxCell>
                <mxCell id="429" value="Error" style="rounded=1;whiteSpace=wrap;html=1;" vertex="1" parent="438">
                    <mxGeometry x="344" y="310" width="210" height="70" as="geometry"/>
                </mxCell>
                <mxCell id="427" value="" style="endArrow=classic;html=1;entryX=0.5;entryY=0;entryDx=0;entryDy=0;" edge="1" parent="438" source="424" target="429">
                    <mxGeometry width="50" height="50" relative="1" as="geometry">
                        <mxPoint x="370" y="460" as="sourcePoint"/>
                        <mxPoint x="420" y="410" as="targetPoint"/>
                    </mxGeometry>
                </mxCell>
                <mxCell id="430" value="Crear nueva reserva" style="rounded=1;whiteSpace=wrap;html=1;" vertex="1" parent="438">
                    <mxGeometry x="650" y="310" width="210" height="70" as="geometry"/>
                </mxCell>
                <mxCell id="432" value="" style="endArrow=classic;html=1;exitX=0.5;exitY=1;exitDx=0;exitDy=0;entryX=0.5;entryY=0;entryDx=0;entryDy=0;" edge="1" parent="438" source="430" target="431">
                    <mxGeometry width="50" height="50" relative="1" as="geometry">
                        <mxPoint x="690" y="660" as="sourcePoint"/>
                        <mxPoint x="740" y="610" as="targetPoint"/>
                    </mxGeometry>
                </mxCell>
                <mxCell id="426" value="" style="endArrow=classic;html=1;entryX=0.5;entryY=0;entryDx=0;entryDy=0;" edge="1" parent="438" source="424" target="430">
                    <mxGeometry width="50" height="50" relative="1" as="geometry">
                        <mxPoint x="420" y="450" as="sourcePoint"/>
                        <mxPoint x="470" y="400" as="targetPoint"/>
                    </mxGeometry>
                </mxCell>
                <mxCell id="434" style="edgeStyle=none;html=1;entryX=0;entryY=0.5;entryDx=0;entryDy=0;" edge="1" parent="439" source="413" target="415">
                    <mxGeometry relative="1" as="geometry"/>
                </mxCell>
                <mxCell id="413" value="" style="ellipse;shape=doubleEllipse;whiteSpace=wrap;html=1;aspect=fixed;" vertex="1" parent="439">
                    <mxGeometry x="19" y="95" width="80" height="80" as="geometry"/>
                </mxCell>
                <mxCell id="414" value="" style="ellipse;shape=doubleEllipse;whiteSpace=wrap;html=1;aspect=fixed;" vertex="1" parent="439">
                    <mxGeometry y="411" width="80" height="80" as="geometry"/>
                </mxCell>
                <mxCell id="433" style="edgeStyle=none;html=1;entryX=1;entryY=0.5;entryDx=0;entryDy=0;exitX=0;exitY=0.5;exitDx=0;exitDy=0;" edge="1" parent="439" source="431" target="414">
                    <mxGeometry relative="1" as="geometry"/>
                </mxCell>
                <mxCell id="480" value="" style="group" vertex="1" connectable="0" parent="1">
                    <mxGeometry x="1240" y="-1620" width="1120" height="470" as="geometry"/>
                </mxCell>
                <mxCell id="479" value="" style="group" vertex="1" connectable="0" parent="480">
                    <mxGeometry x="240" width="880" height="470" as="geometry"/>
                </mxCell>
                <mxCell id="442" value="" style="rounded=0;whiteSpace=wrap;html=1;" vertex="1" parent="479">
                    <mxGeometry width="880" height="470" as="geometry"/>
                </mxCell>
                <mxCell id="443" value="" style="rounded=0;whiteSpace=wrap;html=1;" vertex="1" parent="479">
                    <mxGeometry y="62.67000000000007" width="292.7" height="407.33" as="geometry"/>
                </mxCell>
                <mxCell id="444" value="" style="rounded=0;whiteSpace=wrap;html=1;" vertex="1" parent="479">
                    <mxGeometry x="292.70000000000005" y="62.67000000000007" width="292.7" height="407.33" as="geometry"/>
                </mxCell>
                <mxCell id="445" value="Cliente" style="rounded=0;whiteSpace=wrap;html=1;" vertex="1" parent="479">
                    <mxGeometry width="292.69565217391306" height="62.674418604651166" as="geometry"/>
                </mxCell>
                <mxCell id="446" value="Sistema" style="rounded=0;whiteSpace=wrap;html=1;" vertex="1" parent="479">
                    <mxGeometry x="292.695652173913" width="292.69565217391306" height="62.674418604651166" as="geometry"/>
                </mxCell>
                <mxCell id="447" value="Base de Datos" style="rounded=0;whiteSpace=wrap;html=1;" vertex="1" parent="479">
                    <mxGeometry x="585.391304347826" width="294.60869565217394" height="62.674418604651166" as="geometry"/>
                </mxCell>
                <mxCell id="448" value="Mostrar lista en GUI" style="rounded=1;whiteSpace=wrap;html=1;" vertex="1" parent="479">
                    <mxGeometry x="346" y="340" width="208" height="70" as="geometry"/>
                </mxCell>
                <mxCell id="449" value="Listar Apartamento" style="rounded=1;whiteSpace=wrap;html=1;" vertex="1" parent="479">
                    <mxGeometry x="48" y="100" width="210" height="70" as="geometry"/>
                </mxCell>
                <mxCell id="477" style="edgeStyle=none;html=1;entryX=0.5;entryY=0;entryDx=0;entryDy=0;" edge="1" parent="479" source="450" target="476">
                    <mxGeometry relative="1" as="geometry"/>
                </mxCell>
                <mxCell id="450" value="Consulta la base de datos" style="rounded=1;whiteSpace=wrap;html=1;" vertex="1" parent="479">
                    <mxGeometry x="346" y="160" width="208" height="70" as="geometry"/>
                </mxCell>
                <mxCell id="451" style="edgeStyle=none;html=1;entryX=0.5;entryY=0;entryDx=0;entryDy=0;" edge="1" parent="479" source="449" target="450">
                    <mxGeometry relative="1" as="geometry"/>
                </mxCell>
                <mxCell id="478" style="edgeStyle=none;html=1;entryX=0.5;entryY=0;entryDx=0;entryDy=0;" edge="1" parent="479" source="476" target="448">
                    <mxGeometry relative="1" as="geometry"/>
                </mxCell>
                <mxCell id="476" value="Obtener lista de apartamentos" style="rounded=1;whiteSpace=wrap;html=1;" vertex="1" parent="479">
                    <mxGeometry x="628.6999999999998" y="240" width="208" height="70" as="geometry"/>
                </mxCell>
                <mxCell id="459" style="edgeStyle=none;html=1;entryX=0;entryY=0.5;entryDx=0;entryDy=0;" edge="1" parent="480" source="460" target="449">
                    <mxGeometry relative="1" as="geometry"/>
                </mxCell>
                <mxCell id="460" value="" style="ellipse;shape=doubleEllipse;whiteSpace=wrap;html=1;aspect=fixed;" vertex="1" parent="480">
                    <mxGeometry x="10" y="95" width="80" height="80" as="geometry"/>
                </mxCell>
                <mxCell id="461" value="" style="ellipse;shape=doubleEllipse;whiteSpace=wrap;html=1;aspect=fixed;" vertex="1" parent="480">
                    <mxGeometry y="340" width="80" height="80" as="geometry"/>
                </mxCell>
                <mxCell id="462" style="edgeStyle=none;html=1;entryX=1;entryY=0.5;entryDx=0;entryDy=0;exitX=0;exitY=0.5;exitDx=0;exitDy=0;" edge="1" parent="480" source="448" target="461">
                    <mxGeometry relative="1" as="geometry"/>
                </mxCell>
                <mxCell id="481" value="" style="group" vertex="1" connectable="0" parent="1">
                    <mxGeometry x="1241" y="-2120" width="1120" height="470" as="geometry"/>
                </mxCell>
                <mxCell id="482" value="" style="group" vertex="1" connectable="0" parent="481">
                    <mxGeometry x="240" width="880" height="470" as="geometry"/>
                </mxCell>
                <mxCell id="483" value="" style="rounded=0;whiteSpace=wrap;html=1;" vertex="1" parent="482">
                    <mxGeometry width="880" height="470" as="geometry"/>
                </mxCell>
                <mxCell id="484" value="" style="rounded=0;whiteSpace=wrap;html=1;" vertex="1" parent="482">
                    <mxGeometry y="62.67000000000007" width="292.7" height="407.33" as="geometry"/>
                </mxCell>
                <mxCell id="485" value="" style="rounded=0;whiteSpace=wrap;html=1;" vertex="1" parent="482">
                    <mxGeometry x="292.70000000000005" y="62.67000000000007" width="292.7" height="407.33" as="geometry"/>
                </mxCell>
                <mxCell id="486" value="Cliente" style="rounded=0;whiteSpace=wrap;html=1;" vertex="1" parent="482">
                    <mxGeometry width="292.69565217391306" height="62.674418604651166" as="geometry"/>
                </mxCell>
                <mxCell id="487" value="Sistema" style="rounded=0;whiteSpace=wrap;html=1;" vertex="1" parent="482">
                    <mxGeometry x="292.695652173913" width="292.69565217391306" height="62.674418604651166" as="geometry"/>
                </mxCell>
                <mxCell id="488" value="Base de Datos" style="rounded=0;whiteSpace=wrap;html=1;" vertex="1" parent="482">
                    <mxGeometry x="585.391304347826" width="294.60869565217394" height="62.674418604651166" as="geometry"/>
                </mxCell>
                <mxCell id="489" value="Mostrar lista en GUI" style="rounded=1;whiteSpace=wrap;html=1;" vertex="1" parent="482">
                    <mxGeometry x="346" y="340" width="208" height="70" as="geometry"/>
                </mxCell>
                <mxCell id="490" value="Listar Edificios" style="rounded=1;whiteSpace=wrap;html=1;" vertex="1" parent="482">
                    <mxGeometry x="48" y="100" width="210" height="70" as="geometry"/>
                </mxCell>
                <mxCell id="491" style="edgeStyle=none;html=1;entryX=0.5;entryY=0;entryDx=0;entryDy=0;" edge="1" parent="482" source="492" target="495">
                    <mxGeometry relative="1" as="geometry"/>
                </mxCell>
                <mxCell id="492" value="Consulta la base de datos" style="rounded=1;whiteSpace=wrap;html=1;" vertex="1" parent="482">
                    <mxGeometry x="346" y="160" width="208" height="70" as="geometry"/>
                </mxCell>
                <mxCell id="493" style="edgeStyle=none;html=1;entryX=0.5;entryY=0;entryDx=0;entryDy=0;" edge="1" parent="482" source="490" target="492">
                    <mxGeometry relative="1" as="geometry"/>
                </mxCell>
                <mxCell id="494" style="edgeStyle=none;html=1;entryX=0.5;entryY=0;entryDx=0;entryDy=0;" edge="1" parent="482" source="495" target="489">
                    <mxGeometry relative="1" as="geometry"/>
                </mxCell>
                <mxCell id="495" value="Obtener lista de edificios" style="rounded=1;whiteSpace=wrap;html=1;" vertex="1" parent="482">
                    <mxGeometry x="628.6999999999998" y="240" width="208" height="70" as="geometry"/>
                </mxCell>
                <mxCell id="496" style="edgeStyle=none;html=1;entryX=0;entryY=0.5;entryDx=0;entryDy=0;" edge="1" parent="481" source="497" target="490">
                    <mxGeometry relative="1" as="geometry"/>
                </mxCell>
                <mxCell id="497" value="" style="ellipse;shape=doubleEllipse;whiteSpace=wrap;html=1;aspect=fixed;" vertex="1" parent="481">
                    <mxGeometry x="10" y="95" width="80" height="80" as="geometry"/>
                </mxCell>
                <mxCell id="498" value="" style="ellipse;shape=doubleEllipse;whiteSpace=wrap;html=1;aspect=fixed;" vertex="1" parent="481">
                    <mxGeometry y="340" width="80" height="80" as="geometry"/>
                </mxCell>
                <mxCell id="499" style="edgeStyle=none;html=1;entryX=1;entryY=0.5;entryDx=0;entryDy=0;exitX=0;exitY=0.5;exitDx=0;exitDy=0;" edge="1" parent="481" source="489" target="498">
                    <mxGeometry relative="1" as="geometry"/>
                </mxCell>
                <mxCell id="500" value="" style="group" vertex="1" connectable="0" parent="1">
                    <mxGeometry x="1241" y="-2620" width="1120" height="470" as="geometry"/>
                </mxCell>
                <mxCell id="501" value="" style="group" vertex="1" connectable="0" parent="500">
                    <mxGeometry x="240" width="880" height="470" as="geometry"/>
                </mxCell>
                <mxCell id="502" value="" style="rounded=0;whiteSpace=wrap;html=1;" vertex="1" parent="501">
                    <mxGeometry width="880" height="470" as="geometry"/>
                </mxCell>
                <mxCell id="503" value="" style="rounded=0;whiteSpace=wrap;html=1;" vertex="1" parent="501">
                    <mxGeometry y="62.67000000000007" width="292.7" height="407.33" as="geometry"/>
                </mxCell>
                <mxCell id="504" value="" style="rounded=0;whiteSpace=wrap;html=1;" vertex="1" parent="501">
                    <mxGeometry x="292.70000000000005" y="62.67000000000007" width="292.7" height="407.33" as="geometry"/>
                </mxCell>
                <mxCell id="505" value="Cliente" style="rounded=0;whiteSpace=wrap;html=1;" vertex="1" parent="501">
                    <mxGeometry width="292.69565217391306" height="62.674418604651166" as="geometry"/>
                </mxCell>
                <mxCell id="506" value="Sistema" style="rounded=0;whiteSpace=wrap;html=1;" vertex="1" parent="501">
                    <mxGeometry x="292.695652173913" width="292.69565217391306" height="62.674418604651166" as="geometry"/>
                </mxCell>
                <mxCell id="507" value="Base de Datos" style="rounded=0;whiteSpace=wrap;html=1;" vertex="1" parent="501">
                    <mxGeometry x="585.391304347826" width="294.60869565217394" height="62.674418604651166" as="geometry"/>
                </mxCell>
                <mxCell id="508" value="Mostrar lista en GUI" style="rounded=1;whiteSpace=wrap;html=1;" vertex="1" parent="501">
                    <mxGeometry x="346" y="340" width="208" height="70" as="geometry"/>
                </mxCell>
                <mxCell id="509" value="Reservas Mensuales de Apartamento" style="rounded=1;whiteSpace=wrap;html=1;" vertex="1" parent="501">
                    <mxGeometry x="48" y="100" width="210" height="70" as="geometry"/>
                </mxCell>
                <mxCell id="510" style="edgeStyle=none;html=1;entryX=0.5;entryY=0;entryDx=0;entryDy=0;" edge="1" parent="501" source="511" target="514">
                    <mxGeometry relative="1" as="geometry"/>
                </mxCell>
                <mxCell id="511" value="Consulta la base de datos" style="rounded=1;whiteSpace=wrap;html=1;" vertex="1" parent="501">
                    <mxGeometry x="346" y="160" width="208" height="70" as="geometry"/>
                </mxCell>
                <mxCell id="512" style="edgeStyle=none;html=1;entryX=0.5;entryY=0;entryDx=0;entryDy=0;" edge="1" parent="501" source="509" target="511">
                    <mxGeometry relative="1" as="geometry"/>
                </mxCell>
                <mxCell id="513" style="edgeStyle=none;html=1;entryX=0.5;entryY=0;entryDx=0;entryDy=0;" edge="1" parent="501" source="514" target="508">
                    <mxGeometry relative="1" as="geometry"/>
                </mxCell>
                <mxCell id="514" value="Obtener lista de apartamentos" style="rounded=1;whiteSpace=wrap;html=1;" vertex="1" parent="501">
                    <mxGeometry x="628.6999999999998" y="240" width="208" height="70" as="geometry"/>
                </mxCell>
                <mxCell id="515" style="edgeStyle=none;html=1;entryX=0;entryY=0.5;entryDx=0;entryDy=0;" edge="1" parent="500" source="516" target="509">
                    <mxGeometry relative="1" as="geometry"/>
                </mxCell>
                <mxCell id="516" value="" style="ellipse;shape=doubleEllipse;whiteSpace=wrap;html=1;aspect=fixed;" vertex="1" parent="500">
                    <mxGeometry x="10" y="95" width="80" height="80" as="geometry"/>
                </mxCell>
                <mxCell id="517" value="" style="ellipse;shape=doubleEllipse;whiteSpace=wrap;html=1;aspect=fixed;" vertex="1" parent="500">
                    <mxGeometry y="340" width="80" height="80" as="geometry"/>
                </mxCell>
                <mxCell id="518" style="edgeStyle=none;html=1;entryX=1;entryY=0.5;entryDx=0;entryDy=0;exitX=0;exitY=0.5;exitDx=0;exitDy=0;" edge="1" parent="500" source="508" target="517">
                    <mxGeometry relative="1" as="geometry"/>
                </mxCell>
                <mxCell id="519" value="" style="group" vertex="1" connectable="0" parent="1">
                    <mxGeometry x="1241" y="-3220" width="1120" height="570" as="geometry"/>
                </mxCell>
                <mxCell id="520" value="" style="group" vertex="1" connectable="0" parent="519">
                    <mxGeometry x="240" width="880" height="570" as="geometry"/>
                </mxCell>
                <mxCell id="521" value="" style="rounded=0;whiteSpace=wrap;html=1;" vertex="1" parent="520">
                    <mxGeometry width="880" height="570" as="geometry"/>
                </mxCell>
                <mxCell id="522" value="" style="rounded=0;whiteSpace=wrap;html=1;" vertex="1" parent="520">
                    <mxGeometry y="76.00404255319158" width="292.7" height="493.9959574468085" as="geometry"/>
                </mxCell>
                <mxCell id="523" value="" style="rounded=0;whiteSpace=wrap;html=1;" vertex="1" parent="520">
                    <mxGeometry x="292.70000000000005" y="76.00404255319158" width="292.7" height="493.9959574468085" as="geometry"/>
                </mxCell>
                <mxCell id="524" value="Administrador" style="rounded=0;whiteSpace=wrap;html=1;" vertex="1" parent="520">
                    <mxGeometry width="292.69565217391306" height="76.00940128649184" as="geometry"/>
                </mxCell>
                <mxCell id="525" value="Sistema" style="rounded=0;whiteSpace=wrap;html=1;" vertex="1" parent="520">
                    <mxGeometry x="292.695652173913" width="292.69565217391306" height="76.00940128649184" as="geometry"/>
                </mxCell>
                <mxCell id="526" value="Base de Datos" style="rounded=0;whiteSpace=wrap;html=1;" vertex="1" parent="520">
                    <mxGeometry x="585.391304347826" width="294.60869565217394" height="76.00940128649184" as="geometry"/>
                </mxCell>
                <mxCell id="528" value="Editar Edificio" style="rounded=1;whiteSpace=wrap;html=1;" vertex="1" parent="520">
                    <mxGeometry x="48" y="109.14659574468085" width="210" height="84.8936170212766" as="geometry"/>
                </mxCell>
                <mxCell id="539" style="edgeStyle=none;html=1;entryX=0.5;entryY=0;entryDx=0;entryDy=0;" edge="1" parent="520" source="530">
                    <mxGeometry relative="1" as="geometry">
                        <mxPoint x="450" y="291.0604255319149" as="targetPoint"/>
                    </mxGeometry>
                </mxCell>
                <mxCell id="530" value="Modificar los datos del formulario" style="rounded=1;whiteSpace=wrap;html=1;" vertex="1" parent="520">
                    <mxGeometry x="346" y="170.00255319148937" width="208" height="84.8936170212766" as="geometry"/>
                </mxCell>
                <mxCell id="531" style="edgeStyle=none;html=1;entryX=0.5;entryY=0;entryDx=0;entryDy=0;" edge="1" parent="520" source="528" target="530">
                    <mxGeometry relative="1" as="geometry"/>
                </mxCell>
                <mxCell id="542" style="edgeStyle=none;html=1;entryX=0.5;entryY=0;entryDx=0;entryDy=0;" edge="1" parent="520" source="540" target="541">
                    <mxGeometry relative="1" as="geometry"/>
                </mxCell>
                <mxCell id="544" style="edgeStyle=none;html=1;entryX=0.5;entryY=0;entryDx=0;entryDy=0;" edge="1" parent="520" source="540" target="543">
                    <mxGeometry relative="1" as="geometry"/>
                </mxCell>
                <mxCell id="540" value="" style="line;strokeWidth=4;html=1;perimeter=backbonePerimeter;points=[];outlineConnect=0;" vertex="1" parent="520">
                    <mxGeometry x="370" y="288" width="160" height="10" as="geometry"/>
                </mxCell>
                <mxCell id="546" style="edgeStyle=none;html=1;entryX=0.5;entryY=0;entryDx=0;entryDy=0;" edge="1" parent="520" source="541" target="545">
                    <mxGeometry relative="1" as="geometry"/>
                </mxCell>
                <mxCell id="541" value="Actualizar datos" style="rounded=1;whiteSpace=wrap;html=1;" vertex="1" parent="520">
                    <mxGeometry x="627.6999999999998" y="319.9965957446807" width="210" height="84.8936170212766" as="geometry"/>
                </mxCell>
                <mxCell id="543" value="Error" style="rounded=1;whiteSpace=wrap;html=1;" vertex="1" parent="520">
                    <mxGeometry x="345" y="319.9965957446807" width="210" height="84.8936170212766" as="geometry"/>
                </mxCell>
                <mxCell id="545" value="Enviar confirmacion al usuario" style="rounded=1;whiteSpace=wrap;html=1;" vertex="1" parent="520">
                    <mxGeometry x="345" y="450" width="208" height="70" as="geometry"/>
                </mxCell>
                <mxCell id="534" style="edgeStyle=none;html=1;entryX=0;entryY=0.5;entryDx=0;entryDy=0;" edge="1" parent="519" source="535" target="528">
                    <mxGeometry relative="1" as="geometry"/>
                </mxCell>
                <mxCell id="535" value="" style="ellipse;shape=doubleEllipse;whiteSpace=wrap;html=1;aspect=fixed;" vertex="1" parent="519">
                    <mxGeometry x="10" y="109.14276595744681" width="80" height="80" as="geometry"/>
                </mxCell>
                <mxCell id="536" value="" style="ellipse;shape=doubleEllipse;whiteSpace=wrap;html=1;aspect=fixed;" vertex="1" parent="519">
                    <mxGeometry y="440.00042553191497" width="80" height="80" as="geometry"/>
                </mxCell>
                <mxCell id="547" style="edgeStyle=none;html=1;entryX=1;entryY=0.5;entryDx=0;entryDy=0;" edge="1" parent="519" source="545" target="536">
                    <mxGeometry relative="1" as="geometry"/>
                </mxCell>
                <mxCell id="599" style="edgeStyle=none;html=1;dashed=1;endArrow=none;endFill=0;" edge="1" parent="1" source="626">
                    <mxGeometry relative="1" as="geometry">
                        <mxPoint x="-1515" y="550" as="targetPoint"/>
                        <mxPoint x="-1515.53" y="-209" as="sourcePoint"/>
                    </mxGeometry>
                </mxCell>
                <mxCell id="600" style="edgeStyle=none;html=1;dashed=1;endArrow=none;endFill=0;" edge="1" parent="1" source="628">
                    <mxGeometry relative="1" as="geometry">
                        <mxPoint x="-1325" y="530" as="targetPoint"/>
                    </mxGeometry>
                </mxCell>
                <mxCell id="601" value="Usuario" style="shape=umlActor;verticalLabelPosition=bottom;verticalAlign=top;html=1;outlineConnect=0;" vertex="1" parent="1">
                    <mxGeometry x="-1530" y="-290" width="30" height="60" as="geometry"/>
                </mxCell>
                <mxCell id="602" value="Interfaz Gráfica" style="rounded=0;whiteSpace=wrap;html=1;" vertex="1" parent="1">
                    <mxGeometry x="-1385" y="-280" width="120" height="60" as="geometry"/>
                </mxCell>
                <mxCell id="603" value="Base de Datos" style="rounded=0;whiteSpace=wrap;html=1;" vertex="1" parent="1">
                    <mxGeometry x="-960" y="-280" width="120" height="60" as="geometry"/>
                </mxCell>
                <mxCell id="604" value="Controlador" style="rounded=0;whiteSpace=wrap;html=1;" vertex="1" parent="1">
                    <mxGeometry x="-1175" y="-280" width="120" height="60" as="geometry"/>
                </mxCell>
                <mxCell id="605" style="edgeStyle=none;html=1;dashed=1;endArrow=none;endFill=0;" edge="1" parent="1" source="615">
                    <mxGeometry relative="1" as="geometry">
                        <mxPoint x="-1115" y="530" as="targetPoint"/>
                        <mxPoint x="-1115" y="-220" as="sourcePoint"/>
                    </mxGeometry>
                </mxCell>
                <mxCell id="606" style="edgeStyle=none;html=1;dashed=1;endArrow=none;endFill=0;" edge="1" parent="1" source="635">
                    <mxGeometry relative="1" as="geometry">
                        <mxPoint x="-900" y="520" as="targetPoint"/>
                        <mxPoint x="-900.56" y="-220" as="sourcePoint"/>
                    </mxGeometry>
                </mxCell>
                <mxCell id="607" value="" style="edgeStyle=none;html=1;dashed=1;endArrow=none;endFill=0;" edge="1" parent="1" source="602" target="608">
                    <mxGeometry relative="1" as="geometry">
                        <mxPoint x="-1325" y="400" as="targetPoint"/>
                        <mxPoint x="-1325" y="-220" as="sourcePoint"/>
                    </mxGeometry>
                </mxCell>
                <mxCell id="608" value="" style="rounded=0;whiteSpace=wrap;html=1;" vertex="1" parent="1">
                    <mxGeometry x="-1335" y="-160" width="20" height="220" as="geometry"/>
                </mxCell>
                <mxCell id="609" value="" style="edgeStyle=none;html=1;dashed=1;endArrow=none;endFill=0;" edge="1" parent="1" target="610">
                    <mxGeometry relative="1" as="geometry">
                        <mxPoint x="-1515.53" y="411" as="targetPoint"/>
                        <mxPoint x="-1515.53" y="-209" as="sourcePoint"/>
                    </mxGeometry>
                </mxCell>
                <mxCell id="610" value="" style="rounded=0;whiteSpace=wrap;html=1;" vertex="1" parent="1">
                    <mxGeometry x="-1525" y="-190" width="20" height="280" as="geometry"/>
                </mxCell>
                <mxCell id="611" value="" style="endArrow=classic;html=1;entryX=0;entryY=0;entryDx=0;entryDy=0;exitX=1.011;exitY=0.106;exitDx=0;exitDy=0;exitPerimeter=0;" edge="1" parent="1" source="610" target="608">
                    <mxGeometry width="50" height="50" relative="1" as="geometry">
                        <mxPoint x="-1490" y="-160" as="sourcePoint"/>
                        <mxPoint x="-1400" y="-180" as="targetPoint"/>
                    </mxGeometry>
                </mxCell>
                <mxCell id="612" value="1. Listar Edificios" style="text;html=1;align=center;verticalAlign=middle;whiteSpace=wrap;rounded=0;" vertex="1" parent="1">
                    <mxGeometry x="-1500" y="-190" width="165" height="30" as="geometry"/>
                </mxCell>
                <mxCell id="613" value="" style="endArrow=classic;html=1;exitX=1.002;exitY=0.091;exitDx=0;exitDy=0;exitPerimeter=0;entryX=0;entryY=0;entryDx=0;entryDy=0;" edge="1" parent="1" source="608" target="615">
                    <mxGeometry width="50" height="50" relative="1" as="geometry">
                        <mxPoint x="-1300" y="-120" as="sourcePoint"/>
                        <mxPoint x="-1130" y="-140" as="targetPoint"/>
                    </mxGeometry>
                </mxCell>
                <mxCell id="614" value="" style="edgeStyle=none;html=1;dashed=1;endArrow=none;endFill=0;" edge="1" parent="1" target="615">
                    <mxGeometry relative="1" as="geometry">
                        <mxPoint x="-1115" y="400" as="targetPoint"/>
                        <mxPoint x="-1115" y="-220" as="sourcePoint"/>
                    </mxGeometry>
                </mxCell>
                <mxCell id="615" value="" style="rounded=0;whiteSpace=wrap;html=1;" vertex="1" parent="1">
                    <mxGeometry x="-1125" y="-140" width="20" height="170" as="geometry"/>
                </mxCell>
                <mxCell id="616" value="1.1 getListaEdificios()" style="text;html=1;align=center;verticalAlign=middle;whiteSpace=wrap;rounded=0;" vertex="1" parent="1">
                    <mxGeometry x="-1320" y="-180" width="195" height="50" as="geometry"/>
                </mxCell>
                <mxCell id="617" value="" style="endArrow=classic;html=1;exitX=0.003;exitY=0.913;exitDx=0;exitDy=0;exitPerimeter=0;entryX=1.009;entryY=0.94;entryDx=0;entryDy=0;entryPerimeter=0;" edge="1" parent="1">
                    <mxGeometry width="50" height="50" relative="1" as="geometry">
                        <mxPoint x="-1125.1200000000001" y="0.07000000000016371" as="sourcePoint"/>
                        <mxPoint x="-1315.0000000000002" as="targetPoint"/>
                    </mxGeometry>
                </mxCell>
                <mxCell id="618" value="1.1.3 mostrarLista()" style="text;html=1;align=center;verticalAlign=middle;whiteSpace=wrap;rounded=0;" vertex="1" parent="1">
                    <mxGeometry x="-1302.5" y="-30" width="170" height="30" as="geometry"/>
                </mxCell>
                <mxCell id="619" value="" style="edgeStyle=none;html=1;dashed=1;endArrow=none;endFill=0;" edge="1" parent="1" target="620">
                    <mxGeometry relative="1" as="geometry">
                        <mxPoint x="-900.56" y="400" as="targetPoint"/>
                        <mxPoint x="-900.56" y="-220" as="sourcePoint"/>
                    </mxGeometry>
                </mxCell>
                <mxCell id="620" value="" style="rounded=0;whiteSpace=wrap;html=1;" vertex="1" parent="1">
                    <mxGeometry x="-910" y="-110" width="20" height="110" as="geometry"/>
                </mxCell>
                <mxCell id="621" value="" style="endArrow=classic;html=1;entryX=0;entryY=0;entryDx=0;entryDy=0;exitX=1.003;exitY=0.174;exitDx=0;exitDy=0;exitPerimeter=0;" edge="1" parent="1" source="615" target="620">
                    <mxGeometry width="50" height="50" relative="1" as="geometry">
                        <mxPoint x="-1040" y="-120" as="sourcePoint"/>
                        <mxPoint x="-1000" y="-120" as="targetPoint"/>
                    </mxGeometry>
                </mxCell>
                <mxCell id="622" value="1.1.1 consultarEdificios()" style="text;html=1;align=center;verticalAlign=middle;whiteSpace=wrap;rounded=0;" vertex="1" parent="1">
                    <mxGeometry x="-1090" y="-140" width="160" height="30" as="geometry"/>
                </mxCell>
                <mxCell id="623" value="" style="endArrow=classic;html=1;entryX=1;entryY=0.588;entryDx=0;entryDy=0;exitX=0.01;exitY=0.634;exitDx=0;exitDy=0;exitPerimeter=0;entryPerimeter=0;" edge="1" parent="1" source="620" target="615">
                    <mxGeometry width="50" height="50" relative="1" as="geometry">
                        <mxPoint x="-1010" y="-10" as="sourcePoint"/>
                        <mxPoint x="-960" y="-60" as="targetPoint"/>
                    </mxGeometry>
                </mxCell>
                <mxCell id="624" value="1.1.2 List&amp;lt;Edificios&amp;gt;&amp;nbsp;" style="text;html=1;align=center;verticalAlign=middle;whiteSpace=wrap;rounded=0;" vertex="1" parent="1">
                    <mxGeometry x="-1090" y="-70" width="160" height="30" as="geometry"/>
                </mxCell>
                <mxCell id="625" value="" style="edgeStyle=none;html=1;dashed=1;endArrow=none;endFill=0;" edge="1" parent="1" source="610" target="626">
                    <mxGeometry relative="1" as="geometry">
                        <mxPoint x="-1515.53" y="411" as="targetPoint"/>
                        <mxPoint x="-1515" y="90" as="sourcePoint"/>
                    </mxGeometry>
                </mxCell>
                <mxCell id="626" value="" style="rounded=0;whiteSpace=wrap;html=1;" vertex="1" parent="1">
                    <mxGeometry x="-1525" y="120" width="20" height="90" as="geometry"/>
                </mxCell>
                <mxCell id="627" value="" style="edgeStyle=none;html=1;dashed=1;endArrow=none;endFill=0;" edge="1" parent="1" source="608" target="628">
                    <mxGeometry relative="1" as="geometry">
                        <mxPoint x="-1325" y="400" as="targetPoint"/>
                        <mxPoint x="-1325" y="60" as="sourcePoint"/>
                    </mxGeometry>
                </mxCell>
                <mxCell id="628" value="" style="rounded=0;whiteSpace=wrap;html=1;" vertex="1" parent="1">
                    <mxGeometry x="-1335" y="140" width="20" height="350" as="geometry"/>
                </mxCell>
                <mxCell id="629" value="" style="rounded=0;whiteSpace=wrap;html=1;" vertex="1" parent="1">
                    <mxGeometry x="-1125" y="160" width="20" height="280" as="geometry"/>
                </mxCell>
                <mxCell id="630" value="Edificio" style="rounded=0;whiteSpace=wrap;html=1;" vertex="1" parent="1">
                    <mxGeometry x="-740" y="-280" width="120" height="60" as="geometry"/>
                </mxCell>
                <mxCell id="631" style="edgeStyle=none;html=1;dashed=1;endArrow=none;endFill=0;" edge="1" parent="1" source="633">
                    <mxGeometry relative="1" as="geometry">
                        <mxPoint x="-680" y="520" as="targetPoint"/>
                        <mxPoint x="-681" y="-220" as="sourcePoint"/>
                    </mxGeometry>
                </mxCell>
                <mxCell id="632" value="" style="edgeStyle=none;html=1;dashed=1;endArrow=none;endFill=0;" edge="1" parent="1" target="633">
                    <mxGeometry relative="1" as="geometry">
                        <mxPoint x="-680" y="410" as="targetPoint"/>
                        <mxPoint x="-681" y="-220" as="sourcePoint"/>
                    </mxGeometry>
                </mxCell>
                <mxCell id="633" value="" style="rounded=0;whiteSpace=wrap;html=1;" vertex="1" parent="1">
                    <mxGeometry x="-690" y="180" width="20" height="220" as="geometry"/>
                </mxCell>
                <mxCell id="634" value="" style="edgeStyle=none;html=1;dashed=1;endArrow=none;endFill=0;" edge="1" parent="1" source="620" target="635">
                    <mxGeometry relative="1" as="geometry">
                        <mxPoint x="-900.56" y="400" as="targetPoint"/>
                        <mxPoint x="-900" as="sourcePoint"/>
                    </mxGeometry>
                </mxCell>
                <mxCell id="635" value="" style="rounded=0;whiteSpace=wrap;html=1;" vertex="1" parent="1">
                    <mxGeometry x="-910" y="240" width="20" height="90" as="geometry"/>
                </mxCell>
                <mxCell id="636" value="" style="endArrow=classic;html=1;entryX=0;entryY=0;entryDx=0;entryDy=0;exitX=0.987;exitY=0.227;exitDx=0;exitDy=0;exitPerimeter=0;" edge="1" parent="1" source="626" target="628">
                    <mxGeometry width="50" height="50" relative="1" as="geometry">
                        <mxPoint x="-1460" y="160" as="sourcePoint"/>
                        <mxPoint x="-1410" y="110" as="targetPoint"/>
                    </mxGeometry>
                </mxCell>
                <mxCell id="637" value="" style="endArrow=classic;html=1;entryX=0;entryY=0;entryDx=0;entryDy=0;exitX=0.987;exitY=0.227;exitDx=0;exitDy=0;exitPerimeter=0;" edge="1" parent="1" target="629">
                    <mxGeometry width="50" height="50" relative="1" as="geometry">
                        <mxPoint x="-1315" y="160" as="sourcePoint"/>
                        <mxPoint x="-1145" y="160" as="targetPoint"/>
                    </mxGeometry>
                </mxCell>
                <mxCell id="638" value="" style="endArrow=classic;html=1;entryX=0;entryY=0;entryDx=0;entryDy=0;exitX=0.987;exitY=0.227;exitDx=0;exitDy=0;exitPerimeter=0;" edge="1" parent="1" target="633">
                    <mxGeometry width="50" height="50" relative="1" as="geometry">
                        <mxPoint x="-1105" y="179.42999999999995" as="sourcePoint"/>
                        <mxPoint x="-935" y="179.42999999999995" as="targetPoint"/>
                    </mxGeometry>
                </mxCell>
                <mxCell id="639" value="" style="endArrow=classic;html=1;entryX=1;entryY=0;entryDx=0;entryDy=0;" edge="1" parent="1" target="635">
                    <mxGeometry width="50" height="50" relative="1" as="geometry">
                        <mxPoint x="-690" y="240" as="sourcePoint"/>
                        <mxPoint x="-820" y="240" as="targetPoint"/>
                    </mxGeometry>
                </mxCell>
                <mxCell id="640" value="2. Apartamentos Disponibles" style="text;html=1;align=center;verticalAlign=middle;whiteSpace=wrap;rounded=0;" vertex="1" parent="1">
                    <mxGeometry x="-1495" y="110" width="160" height="30" as="geometry"/>
                </mxCell>
                <mxCell id="641" value="2.1 getAptosDisponibles(edID)" style="text;html=1;align=center;verticalAlign=middle;whiteSpace=wrap;rounded=0;" vertex="1" parent="1">
                    <mxGeometry x="-1302" y="135" width="172" height="30" as="geometry"/>
                </mxCell>
                <mxCell id="642" value="2.1.1 getAptosDisponibles()" style="text;html=1;align=center;verticalAlign=middle;whiteSpace=wrap;rounded=0;" vertex="1" parent="1">
                    <mxGeometry x="-1090" y="150" width="170" height="30" as="geometry"/>
                </mxCell>
                <mxCell id="643" value="2.1.2 consultarAptos(edID)" style="text;html=1;align=center;verticalAlign=middle;whiteSpace=wrap;rounded=0;" vertex="1" parent="1">
                    <mxGeometry x="-877" y="210" width="167" height="30" as="geometry"/>
                </mxCell>
                <mxCell id="644" value="" style="endArrow=classic;html=1;entryX=0;entryY=0.5;entryDx=0;entryDy=0;exitX=1.029;exitY=0.554;exitDx=0;exitDy=0;exitPerimeter=0;" edge="1" parent="1" source="635" target="633">
                    <mxGeometry width="50" height="50" relative="1" as="geometry">
                        <mxPoint x="-850" y="290" as="sourcePoint"/>
                        <mxPoint x="-770" y="290" as="targetPoint"/>
                    </mxGeometry>
                </mxCell>
                <mxCell id="645" value="2.1.3 List&amp;lt;String&amp;gt; Aptos" style="text;html=1;align=center;verticalAlign=middle;whiteSpace=wrap;rounded=0;" vertex="1" parent="1">
                    <mxGeometry x="-877" y="260" width="167" height="30" as="geometry"/>
                </mxCell>
                <mxCell id="646" value="" style="endArrow=classic;html=1;entryX=1;entryY=0.75;entryDx=0;entryDy=0;exitX=0.014;exitY=0.868;exitDx=0;exitDy=0;exitPerimeter=0;" edge="1" parent="1" source="633" target="629">
                    <mxGeometry width="50" height="50" relative="1" as="geometry">
                        <mxPoint x="-820" y="410" as="sourcePoint"/>
                        <mxPoint x="-770" y="360" as="targetPoint"/>
                    </mxGeometry>
                </mxCell>
                <mxCell id="647" value="2.1.4 List&amp;lt;String&amp;gt; Aptos" style="text;html=1;align=center;verticalAlign=middle;whiteSpace=wrap;rounded=0;" vertex="1" parent="1">
                    <mxGeometry x="-865" y="340" width="145" height="30" as="geometry"/>
                </mxCell>
                <mxCell id="648" value="" style="endArrow=classic;html=1;exitX=-0.05;exitY=0.915;exitDx=0;exitDy=0;exitPerimeter=0;entryX=0.992;entryY=0.791;entryDx=0;entryDy=0;entryPerimeter=0;" edge="1" parent="1" source="629" target="628">
                    <mxGeometry width="50" height="50" relative="1" as="geometry">
                        <mxPoint x="-1210" y="440" as="sourcePoint"/>
                        <mxPoint x="-1160" y="390" as="targetPoint"/>
                    </mxGeometry>
                </mxCell>
                <mxCell id="649" value="2.1.5 mostrarAptosDisponibles()" style="text;html=1;align=center;verticalAlign=middle;whiteSpace=wrap;rounded=0;" vertex="1" parent="1">
                    <mxGeometry x="-1306" y="390" width="180" height="30" as="geometry"/>
                </mxCell>
            </root>
        </mxGraphModel>
    </diagram>
</mxfile>